<?xml version="1.0" encoding="UTF-8" standalone="no"?>
<svg
   xmlns:dc="http://purl.org/dc/elements/1.1/"
   xmlns:cc="http://creativecommons.org/ns#"
   xmlns:rdf="http://www.w3.org/1999/02/22-rdf-syntax-ns#"
   xmlns:svg="http://www.w3.org/2000/svg"
   xmlns="http://www.w3.org/2000/svg"
   viewBox="0 0 347.5 387.5"
   height="387.5"
   width="347.5"
   xml:space="preserve"
   version="1.1"
   id="svg2"><metadata
     id="metadata8"><rdf:RDF><cc:Work
         rdf:about=""><dc:format>image/svg+xml</dc:format><dc:type
           rdf:resource="http://purl.org/dc/dcmitype/StillImage" /></cc:Work></rdf:RDF></metadata><defs
     id="defs6" /><g
     transform="matrix(1.25,0,0,-1.25,0,387.5)"
     id="g10"><g
       transform="scale(0.1,0.1)"
       id="g12"><path
         id="path14"
         style="fill:#dbe7eb;fill-opacity:1;fill-rule:evenodd;stroke:none"
         d="m 1754.39,2291.32 c 17.92,56.9 26.7,139.8 27.55,235.77 -11.68,66.06 -6.48,87.39 -10.18,145.26 -0.73,65.93 47.34,96.95 84.39,26.85 33.22,-44.04 32.58,-76.54 65.8,-120.57 58.98,-125.67 88.35,-139.41 133.87,-183.56 15.48,-20.61 22.14,-66.65 -0.77,-79.54 63.38,-40.43 120.18,-63.11 81.06,-137.39 47.6,-32.89 85.18,-78.09 84.23,-174.14 38.76,-34.99 48.58,-45.52 84.26,-85.55 13.52,-35.45 -12.06,-64.17 -49.13,-55.08 30.1,-15.74 80.35,-64 105.61,-120.16 3.44,-24.37 3.8,-53.85 -3.29,-65.37 28,3.1 53.21,-1.7 84.85,-19.19 47.36,-36.1 28.65,-102.27 -41.53,-88.91 19.05,-54.01 110.98,-78.98 96.48,-173.44 -12.32,-26.63 -24.63,-53.25 -36.94,-79.87 0.17,-26.85 -3.45,-48.29 57.18,-162.06 28.96,-50.11 57.78,-107.11 100.8,-155.686 25.83,-44.137 47.19,-128.332 20.07,-168.059 12.6,-54.727 23.32,-92.48 35.92,-147.215 35.74,-135.269 -7.01,-182.535 -60.98,-217.234 -114.19,-43.418 -221.28,-11.641 -330.41,30.773 -295.87,-135.5 -372.09,-42.894 -590.7,77.735 -27.6,-6.633 -55.58,-12.586 -84.58,-16.797 7.6,37.879 -12.13,76.968 -41.74,104.347 -28.92,24.461 -62.89,37.434 -98.35,49.289 -35.99,15.254 -73.29,28.59 -105.41,51.325 -22.92,17.148 -40.7,38.351 -58.65,59.218 11.4,16.965 23.18,32.653 33.38,46.352 -106.82,24.676 -36.85,47.34 -0.82,87.801 -5.82,11.722 -10.74,25.265 -14.17,40.094 15.45,19.327 29.64,39.767 42.65,61.187 l 4.02,6.87 4.81,-2.42 c 37.99,-16.77 71.25,-11.68 107.58,7.13 l 7.05,-1.39 c 52.59,-4.36 97.3,22.38 123.04,71.17 l 1.55,3.71 2.97,0.07 c 12.3,0.62 24.4,1.72 36.6,3.39 60.38,10.03 111.7,35.26 153.37,80.56 36.06,42.18 58.21,94.63 69.42,148.73 13.04,73.04 -6.31,142.57 -49.78,202.11 -24.42,31.88 -53.27,57.72 -87.9,78.1 -33.69,18.61 -67.41,31.03 -104.5,35.52 17.66,10.9 36.56,21.95 48.45,49.42 -8.02,-0.89 -16.5,16.87 -15.84,46.94 9.17,10.56 16.73,23.23 23.67,38.44 2.22,27.42 -2.77,50.44 -16.3,74.38 l -1.87,3.08 c -6.77,19.12 -15.01,33.24 -27.88,42.87 0.5,6.6 2.63,13.66 6.22,21.35 49.71,92.6 61.32,104.63 144.03,175.92 -63.13,25.53 -48,90.08 -39.16,147.87" /><path
         id="path16"
         style="fill:#4c755d;fill-opacity:1;fill-rule:evenodd;stroke:none"
         d="m 2055.05,2315.53 c 63.38,-40.43 120.17,-63.11 81.07,-137.39 5.99,-4.14 7.31,-12.85 5.29,-17.11 -13.08,-14.44 -33.59,34.89 -44.93,13.45 -11.35,-21.43 19.89,-77.93 2.77,-96.82 -17.12,-18.89 -41.11,42.86 -59.39,34.32 -18.29,-8.53 4.28,-59.97 -12.35,-67.82 -16.63,-7.86 -28.01,42.91 -44.26,41.11 -16.25,-1.81 1.53,-40.55 -22.43,-48.5 -23.97,-7.94 -27.5,77.35 -42.06,74.63 -14.55,-2.72 -23.54,-59.66 -45.42,-44.67 -21.88,14.99 -17.54,27.32 -16.74,50.52 0.79,23.21 14.13,55.54 40.36,65.82 26.24,10.28 48.03,7.42 70.06,12.86 22.03,5.45 43.54,49.47 59.03,83.23 6.79,19.73 25.06,43.9 29,36.37" /><path
         id="path18"
         style="fill:#4c755d;fill-opacity:1;fill-rule:evenodd;stroke:none"
         d="m 2220.52,2003.86 c 38.61,-34.87 48.45,-45.44 84.07,-85.41 13.53,-35.45 -12.05,-64.17 -49.12,-55.08 -0.33,-0.27 -4.98,-0.35 -7.09,-4.12 -16.77,-16.32 2.05,-80.78 -20.08,-92.68 -22.15,-11.87 -32.25,55.01 -53.16,53.36 -20.86,-1.7 -9.78,-58.33 -28.8,-59.93 -19,-1.6 -18.72,50.46 -35.89,54.45 -17.21,4 -8.05,-38.94 -34.66,-38.04 -26.61,0.85 -10.02,82.88 -25.68,85.4 -15.66,2.54 -38.43,-48.24 -57.43,-26.38 -19.04,21.87 -11.62,32.02 -5.3,53.73 6.33,21.69 27.74,47.63 57.25,48.17 29.5,0.53 51.29,-9.79 75.31,-12.38 24.02,-2.58 56.65,31.57 80.63,58.1 8.34,9.24 14.4,16.29 19.95,20.81" /><path
         id="path20"
         style="fill:#4c755d;fill-opacity:1;fill-rule:evenodd;stroke:none"
         d="m 2484.89,1368.95 c -8.09,-17.5 -16.15,-35.03 -24.24,-52.52 0.13,-20.82 -2.02,-38.37 25.28,-98.25 -1.13,-3.74 -1.34,-9.45 -0.41,-17.81 3.72,-33.61 -21.9,-43.99 -36.56,-41.84 -14.65,2.15 -31.37,22.99 -38.71,33.51 -4.9,7.02 0.47,-41.52 -15.79,-43.32 -38.66,-4.28 -70.13,75.38 -61.45,-3.02 4.96,-44.8 -48.82,-5.41 -56.16,5.11 -22.03,31.58 -26.39,-40.71 -65.55,15.42 -58.74,84.2 -18.94,-107.9 -87.91,12.95 -7.76,14.25 -25.52,-67.09 -66.34,3.99 -12.65,21.28 -21.1,-32.57 -51.62,-35.95 -18.3,-2.02 -12.64,21.28 -18.78,39.49 -2.86,7.25 -36.14,-45.57 -44.28,-46.47 -58.99,-6.53 -20.16,126.28 -25.08,152.18 51.68,-1.85 128.73,-84.03 137.85,56.83 3.93,76.02 45.16,1.22 63.92,-19.37 67.67,-71.88 147.67,23.89 186.38,-9.6 43.2,-36.79 116.37,9.09 152.13,39.51 7.02,6.46 16.57,9.27 27.32,9.16" /><path
         id="path22"
         style="fill:#4c755d;fill-opacity:1;fill-rule:evenodd;stroke:none"
         d="m 2609.35,1009.54 c 3.01,-3.65 6.11,-7.29 9.28,-10.856 25.83,-44.137 47.19,-128.332 20.07,-168.063 0.08,-0.348 0.16,-0.699 0.23,-1.039 -24.72,-10.797 -60.14,39.363 -53.61,-19.609 4.56,-41.168 -22.32,-53.407 -37.85,-50.485 -15.53,2.903 -33.59,28.696 -41.55,41.692 -5.31,8.683 1.28,-50.789 -15.88,-52.688 -40.79,-4.515 -75.53,93.524 -64.89,-2.543 6.08,-54.91 -51.51,-5.703 -59.47,7.297 -23.87,39.039 -27.12,-49.328 -69.55,20.078 -63.67,104.106 -18.02,-131.648 -93.18,17.485 -8.46,17.586 -25.73,-81.579 -70.18,6.125 -13.77,26.265 -151.04,-50.211 -183.23,-53.774 -19.32,-2.137 -13.77,26.27 -20.59,48.649 -3.17,8.921 -37.36,-55.063 -45.94,-56.012 -62.23,-6.895 -23.67,154.855 -29.35,186.637 54.66,-3.219 175.98,-83.098 182.99,89.066 2.74,92.92 47.72,0.63 67.93,-24.906 72.86,-89.199 246.63,15.136 288.17,-26.574 46.35,-45.797 122.83,8.968 160.06,45.51 12.9,13.73 34.38,13.42 56.54,4.01" /><path
         id="path24"
         style="fill:#4c755d;fill-opacity:1;fill-rule:evenodd;stroke:none"
         d="m 1337.18,868.418 c -106.82,24.676 -36.84,47.344 -0.82,87.801 2.23,6.906 6.79,7.715 9.3,7.98 38.71,5.922 68.33,-1.976 100.11,-0.59 31.8,1.403 71.49,46.351 100.5,80.951 29.02,34.78 35.25,45.18 73.16,30.32 37.84,-14.81 80.91,-69.36 93.73,-105.005 12.86,-35.605 -5.69,-66.359 -27.05,-79.859 -21.45,-13.438 -44.98,43.363 -65.53,21.656 -20.47,-21.668 10.26,-91.988 -17.74,-109.52 -27.99,-17.605 -47.46,57.036 -74.81,51.407 -27.17,-5.778 -7.4,-68.512 -32.21,-73.758 -24.84,-5.25 -29.29,54.324 -52.21,55.789 -23.06,1.449 -6.96,-46.027 -42.02,-49.774 -35.05,-3.761 -20.86,92.969 -41.69,93.008 -7.15,4.735 -33.3,-33.023 -22.72,-10.406" /><path
         id="path26"
         style="fill:#ffffff;fill-opacity:1;fill-rule:evenodd;stroke:none"
         d="m 1785.95,696.887 c 39.3,-17.344 55.08,-40.282 99.14,-49.864 118.98,-27.793 210.27,25.688 321.07,37.954 92.35,10.222 73.04,-147.688 -23,-158.321 -60.94,-6.746 -132.71,-67.711 -203.41,-36.98 -76.77,34.875 -213.68,37.945 -259.27,128.515 -39.08,72.02 34.19,101.063 65.47,78.696" /><path
         id="path28"
         style="fill:#ffffff;fill-opacity:1;fill-rule:evenodd;stroke:none"
         d="m 2339.26,639.535 c 28.43,-7.152 72.38,-18.117 102.01,-17.472 80.45,0.046 113.41,47.562 179.67,81.109 55.22,27.957 73.4,-92.059 15.97,-121.133 -36.44,-18.453 -67.32,-86.738 -118.36,-74.289 -55.75,14.852 -159.14,1.16 -207.86,71.844 -37.65,52.039 16.5,72.824 28.57,59.941" /><path
         id="path30"
         style="fill:#ffffff;fill-opacity:1;fill-rule:evenodd;stroke:none"
         d="m 1965.36,1071.45 c 1.21,-15.66 5.96,-34.38 13.06,-51.46 5.92,-12.41 16.56,-32.545 13.04,-40.478 -2.33,-12.61 5.98,-45.356 -3.44,-51.86 -11.77,-8.132 -31.81,-5.484 -50.68,3.469 -24.77,10.379 -51.91,30.113 -73.16,48.426 -24.79,21.363 -36.62,46.173 -50.8,69.363 -21.97,28.65 -62.77,99.59 -42.64,113.5 4.71,3.25 47.2,-33.37 54.28,-39.47 7.09,-6.1 25.96,-15.06 29.5,-18.11 3.54,-3.05 21.23,-7.33 21.23,-7.33 7.08,-6.1 32.99,0.81 35.35,2.43 17.8,1.57 50.47,-4.16 54.26,-28.48" /><path
         id="path32"
         style="fill:#ffffff;fill-opacity:1;fill-rule:evenodd;stroke:none"
         d="m 2150.59,1091.73 c 30.28,-4.2 77.07,-10.63 108.93,-9.05 86.43,3.07 123.62,39.38 196.07,66.64 60.38,22.71 75.38,-65.17 12.59,-88.79 -39.84,-14.99 -75.59,-66.55 -129.95,-59.28 -59.33,8.85 -170.92,-5.148 -220.59,45.18 -38.49,36.98 20.47,54.36 32.95,45.3" /><path
         id="path34"
         style="fill:#ffffff;fill-opacity:1;fill-rule:evenodd;stroke:none"
         d="m 2159.96,1426.06 c 22.02,-3.06 56.07,-7.74 79.25,-6.58 62.88,2.23 89.93,28.65 142.64,48.47 43.92,16.53 54.84,-47.41 9.16,-64.59 -28.99,-10.91 -54.99,-48.41 -94.54,-43.13 -43.17,6.45 -124.34,-3.74 -160.48,32.87 -28,26.9 14.89,39.55 23.97,32.96" /><path
         id="path36"
         style="fill:#ffffff;fill-opacity:1;fill-rule:evenodd;stroke:none"
         d="m 1761.67,2089.3 c -25.17,-28.29 -47.28,-60.58 -70.84,-77.76 -5.2,-4.22 -6.8,-40.84 -5.61,-51.63 1.6,-14.41 24.76,-19.12 34.34,-29 12.78,-13.16 -12.8,-88.86 23.55,-84.83 25.16,2.78 28.35,-0.51 51.93,16.68 5.19,4.22 43.55,41.25 49.14,41.87 8.39,0.93 43.53,-35.26 68.69,-32.47 5.59,0.62 36.76,51.43 36.76,51.43 21.58,35.18 8.4,26.44 53.14,31.39 33.55,3.72 97.84,-40.18 113.44,23.49 9.59,41.14 -94.26,33.29 -113.83,31.12 -55.92,-6.19 -118.64,-27.71 -166.56,21.64 -25.55,26.32 -49.19,75.79 -74.15,58.07" /><path
         id="path38"
         style="fill:#ffffff;fill-opacity:1;fill-rule:evenodd;stroke:none"
         d="m 1806.91,2699.45 c 7.27,-65.69 8.59,-141.11 15.86,-206.79 8.59,-77.62 -32.45,-151.69 -33.12,-230.34 0.32,-87.62 68.83,-28.66 94.3,-25.84 41.7,4.62 78.77,-12.43 70.5,62.22 -2.64,23.88 30.12,24.48 20.2,71.75 -12.9,52.96 -90.33,180.4 -117.12,231.84 -2.98,5.72 -54.25,130 -50.62,97.16" /><path
         id="path40"
         style="fill:#231f20;fill-opacity:1;fill-rule:evenodd;stroke:none"
         d="m 957.621,2089.84 c 93.249,0.64 153.449,-16.06 224.389,-77.35 43.56,-40.39 70.38,-84.15 78.35,-143.67 l 0.53,-7.11 0.93,-0.4 c 61,-26.19 118.34,-53.93 171.41,-94.36 l 4.75,-3.72 c 15.88,-6.55 33.16,-6.58 48.44,1.49 l 1.98,1.31 c -17.35,8.88 -32.22,19.85 -44.04,35.45 -6.13,9.09 -10.72,18.65 -14.32,28.99 -9.34,33.76 2.26,74.82 28.19,98.68 l 3.17,2.56 c 4.51,3.19 8.93,5.71 13.99,7.93 l 0.63,0.24 1.73,2.5 c 15.12,21 31.9,41.99 57.16,50.68 l 3.93,0.93 c 29.52,11.05 58.14,-7.52 72.1,-33.09 l 0.64,-1.53 c 33.26,-6.62 48.43,-24.54 59.6,-56.06 l 1.88,-3.08 c 13.51,-23.93 18.5,-46.97 16.28,-74.38 -17.11,-37.52 -38.08,-59.69 -77.5,-72.43 l -3.31,-0.97 c 3.53,-19.79 6.01,-37.96 1.3,-57.81 l -0.55,-1.84 0.09,0 c 46.69,-1.33 87.47,-14.78 128.2,-37.27 34.63,-20.38 63.48,-46.21 87.9,-78.1 43.47,-59.54 62.82,-129.07 49.78,-202.11 -11.2,-54.11 -33.36,-106.56 -69.42,-148.73 -41.67,-45.3 -92.98,-70.53 -153.36,-80.56 -12.21,-1.67 -24.31,-2.77 -36.61,-3.39 l -2.97,-0.06 -1.55,-3.72 c -25.74,-48.79 -70.45,-75.53 -123.04,-71.17 l -7.05,1.39 c -36.32,-18.82 -69.59,-23.9 -107.57,-7.14 l -4.82,2.43 -4.02,-6.87 C 1327.43,995.883 1280.12,942.402 1221.7,899.977 l -6.23,-4.352 -1.05,-0.711 5.74,-2.273 c 63.74,-28.789 89.26,-90.125 142.29,-129.789 32.13,-22.735 69.42,-36.067 105.41,-51.321 35.46,-11.863 69.42,-24.836 98.35,-49.297 38.52,-35.621 60.33,-91.086 26.95,-137.875 -21.25,-23.156 -46.69,-31.242 -77.03,-36.367 l -8.5,-0.918 c -14.24,-26.324 -33.88,-52.492 -62.08,-64.582 l -6.27,-1.851 c -55.48,-6.805 -107.34,10.066 -155.88,35.828 l -2.99,1.636 -1.82,-1.515 c -54.72,-43.215 -131.91,-78.43 -203.14,-70.707 -33.24,4.75 -63.08,17.211 -92.524,32.914 l -1.84,-1.93 c -41.723,-37.972 -97.57,-21.078 -131.113,18.024 -5.735,12.664 -7.891,23.879 -8.989,37.613 l -0.226,2.601 -3.164,6.149 -0.434,-0.723 -3.512,-5.269 c -12.671,-16.727 -28.449,-26.246 -48.453,-32.207 l -5.672,-1.149 -0.148,-0.011 -2.219,-4.504 c -18.574,-31.493 -41.59,-45.844 -75.355,-57.539 l -6.617,-2.235 -6.52,-2.215 -6.23,-2.23 C 632.395,351.648 579.293,352.844 526.613,362.73 c -58.437,13.645 -112.515,37.696 -148.105,87.922 -23.664,41.368 -20.985,89.477 -11.699,135.047 8.347,31.223 22.226,54.731 48.648,73.84 l 6.918,4.152 c 30.563,24.789 66.566,40.176 105.746,44.297 l 6.18,0.356 1.57,0.008 2.395,2.23 c 9.019,8 18.722,15.168 28.027,22.82 l -1.238,0.743 c -18.633,11.617 -35.664,24.871 -44.996,45.296 l -0.36,1.094 -1.621,0.91 c -52.129,28 -110.273,41.653 -155.164,82.301 -24.144,16.598 -40.996,38.637 -55.184,63.965 l -2.636,4.949 -1.879,3.672 c -51.18,56.172 -72.621,120.118 -64.594,195.308 l 0.879,6.69 c 7.441,47.81 25.848,87.96 62.215,120.58 l 5.414,4.49 5.086,3.92 -0.477,1.17 c -12.73,35.59 -10.359,73.65 3.918,108.4 l 2.344,5.1 c 15.16,29.79 32.848,46.69 67.102,51.76 50.144,2.69 81.277,-24.11 103.929,-66.36 10.782,-22.31 16.813,-44.67 20.028,-69.19 l 0.769,-7.4 0.055,-0.73 c 3.375,-0.88 6.758,-1.75 10.133,-2.62 l 0.218,3.5 c 1.387,22.89 2.793,45.73 5.512,68.5 1.715,12.52 3.824,24.84 6.625,37.16 3.563,33.05 11.742,63.51 25.481,93.76 l 3.183,6.61 c 16.852,32.98 38.512,62.67 58.301,93.85 l 3.57,5.73 3.496,5.8 0.59,1.01 -1.504,2.51 c -13.508,23.4 -25.371,46.69 -27.812,73.99 -0.367,26.04 8.226,49.02 24.808,69.06 20.868,20.86 46.383,32.71 70.68,48.75 l 1.637,1.19 c -5.981,51.87 7.254,115.6 38.156,158.5 l 4.867,6.45 10.078,12.46 c 41.317,47.83 91.078,80.67 150.649,101.5 19.941,6.45 38.008,11.75 59.07,12.06" /><path
         id="path42"
         style="fill:#ffffff;fill-opacity:1;fill-rule:evenodd;stroke:none"
         d="m 1606.41,1152.04 c -17.7,-49.29 -74.38,-86.39 -126.6,-72.88 -48.74,-26.72 -80.88,-21.75 -114.64,-1.79 39.3,30.43 60.13,72.75 89.54,161.77 15.77,-35.52 97.36,-71.91 151.7,-87.1" /><path
         id="path44"
         style="fill:#ffffff;fill-opacity:1;fill-rule:evenodd;stroke:none"
         d="m 1505.2,1768.86 c -30.02,12.52 -49.87,28.92 -59.52,49.22 -15.01,28.23 -10.1,50.08 -2.33,71.03 8.54,22.81 21.48,37.07 38.82,42.77 18.24,26.63 37.75,48.83 59.47,52.9 17.85,8.03 51.23,-0.99 63.09,-33.95 24.75,-4.24 43.86,-9.35 57.73,-51.66 12.61,-20.12 20.37,-42.74 17.43,-70.86 -21.35,-50.62 -51.66,-60.71 -82.36,-68.97 -8.52,-10.34 -75.98,-0.31 -92.33,9.52" /><path
         id="path46"
         style="fill:#e8212a;fill-opacity:1;fill-rule:evenodd;stroke:none"
         d="m 705.129,1794.51 c 45.863,46.1 139.844,74.07 142.633,70.54 69.035,25.26 339.308,38.19 403.968,-9.88 67.68,-29 119.95,-51.73 181.36,-100.32 25.97,-11.99 57.25,-6.27 72.11,14.01 16.35,-9.83 83.81,-19.86 92.33,-9.52 5.68,-31.68 9.75,-49.67 -1.78,-75.56 -16.16,-1.49 -30.81,-1.6 -42.83,-0.23 -206.55,-11.31 -70.55,-262.42 -350.39,-159.94 -22.51,5.3 -119.4,47.19 -152.05,71 -69.64,28.38 -167.246,56.43 -256.925,52.07 -18.742,-1.63 -37.817,0.75 -51.672,-1.69 -20.27,1.77 -27.996,-1.07 -46.899,-2.01 -0.363,0.12 -38.839,-20.53 -56.816,-39.55 -24.148,39.55 -36.691,70.01 -28.453,99.16 10.168,53.67 61.945,65.83 95.414,91.92" /><path
         id="path48"
         style="fill:#ffffff;fill-opacity:1;fill-rule:evenodd;stroke:none"
         d="m 705.129,1794.51 c 0.629,0.63 1.258,1.26 1.91,1.88 19.527,1.38 32.051,14.17 59.055,15.63 120.469,4.94 271.206,-36.69 391.406,-53.45 67.5,-3.21 253.57,-64.87 273.05,-147.55 -39.83,-69.61 -44.35,-154.67 -228.02,-87.41 -22.51,5.3 -119.4,47.19 -152.05,71 -69.64,28.38 -167.246,56.43 -256.925,52.07 -18.742,-1.63 -37.817,0.75 -51.672,-1.69 -20.27,1.77 -27.996,-1.07 -46.899,-2.01 -0.363,0.12 -38.839,-20.53 -56.816,-39.55 -24.148,39.55 -36.691,70.01 -28.453,99.16 10.168,53.67 61.945,65.83 95.414,91.92" /><path
         id="path50"
         style="fill:#ffffff;fill-opacity:1;fill-rule:evenodd;stroke:none"
         d="m 750.879,1338.75 c 3.609,-0.42 5.926,-6.18 5.16,-12.83 -0.766,-6.65 -4.332,-11.74 -7.937,-11.33 -3.61,0.42 -5.926,6.18 -5.161,12.83 0.766,6.65 4.332,11.74 7.938,11.33" /><path
         id="path52"
         style="fill:#ffffff;fill-opacity:1;fill-rule:evenodd;stroke:none"
         d="m 608.527,1365.4 c 2.516,-0.45 3.879,-4.61 3.036,-9.24 -0.84,-4.64 -3.579,-8.05 -6.09,-7.59 -2.512,0.46 -3.875,4.61 -3.035,9.24 0.839,4.64 3.578,8.05 6.089,7.59" /><path
         id="path54"
         style="fill:#ffffff;fill-opacity:1;fill-rule:evenodd;stroke:none"
         d="m 444.059,1374.96 c 8.617,-0.99 14.156,-14.76 12.328,-30.66 -1.828,-15.89 -10.352,-28.05 -18.969,-27.06 -8.617,0.99 -14.156,14.77 -12.328,30.66 1.828,15.9 10.348,28.05 18.969,27.06" /><path
         id="path56"
         style="fill:#f7d099;fill-opacity:1;fill-rule:evenodd;stroke:none"
         d="m 501.77,1282.39 c 7.668,-2.36 19.781,-5.02 27.062,-7.36 2.863,40.92 3.707,81.15 13.039,119.99 8.992,96.29 59.406,143.97 96.297,208.41 17.977,19.02 56.453,39.67 56.816,39.55 18.903,0.94 26.629,3.78 46.899,2.01 -15.531,-19.37 -23.344,-46.1 -30.383,-68.17 27.227,23.52 49.504,51.27 82.055,69.86 89.679,4.36 187.285,-23.69 256.925,-52.07 27.88,-133.49 3.4,-247.95 -50.14,-373.57 85.87,83.68 226.03,107.35 320.25,19.23 36.39,-34.2 33.05,-99.35 19.25,-144.95 -18.92,-74.13 -56.71,-116.843 -97.21,-155.078 -32.05,-23.394 -62.01,-43.414 -87.34,-55.984 -26.88,-18.711 -46.01,-57.246 -82.6,-86.727 -23.88,-13.832 -54.28,-30.211 -112.213,-8.273 -72.231,32.906 -137.555,72.879 -208.329,100.676 -76.808,-9.981 -148.543,10.14 -214.683,46.25 -70.195,44.687 -121.582,109.386 -153.754,195.516 -3.906,20.74 -7.481,33.61 -8.441,53.39 54.523,-41 88.863,-29.59 110.246,-9.09 18.324,21.5 20.554,67.52 16.254,106.39 z m 256.89,258.13 c 32.012,-3.68 49.418,-82.36 38.77,-175.14 -10.692,-92.78 -45.508,-165.45 -77.528,-161.76 -32.019,3.68 -49.429,82.36 -38.757,175.14 10.675,92.77 45.484,165.44 77.515,161.76 z m -135.535,-34.33 c 22.203,-4.04 30.789,-59.83 19.129,-124.2 -11.703,-64.35 -39.344,-113.57 -61.566,-109.53 -22.2,4.03 -30.793,59.83 -19.106,124.18 11.684,64.38 39.324,113.58 61.543,109.55 z m -83.934,-237.44 c 68.235,2.77 131.793,-92.16 152.34,-145.78 -39.797,60.17 -82.773,116.19 -152.34,145.78" /><path
         id="path58"
         style="fill:#ffffff;fill-opacity:1;fill-rule:evenodd;stroke:none"
         d="m 621.859,1499.27 c 19.579,-3.57 26.575,-55.86 15.575,-116.4 -10.985,-60.56 -35.914,-107.04 -55.477,-103.49 -19.578,3.56 -26.578,55.84 -15.582,116.4 10.992,60.55 35.918,107.03 55.484,103.49 z m -18.191,-120.05 c 13.566,-2.46 20.941,-24.87 16.398,-49.91 -4.539,-25.01 -19.324,-43.41 -32.867,-40.95 -13.562,2.46 -20.972,24.9 -16.414,49.9 4.547,25.03 19.336,43.43 32.883,40.96" /><path
         id="path60"
         style="fill:#ffffff;fill-opacity:1;fill-rule:evenodd;stroke:none"
         d="m 757.43,1529.88 c 28.093,-3.23 42.851,-76.76 32.855,-163.68 -9.988,-86.91 -41.062,-155.16 -69.156,-151.94 -28.094,3.24 -42.856,76.76 -32.856,163.69 10,86.9 41.071,155.16 69.157,151.93 z m -14.692,-171.97 c 19.45,-2.24 31.981,-33.36 27.844,-69.28 -4.121,-35.9 -23.402,-63.37 -42.848,-61.13 -19.464,2.24 -32.023,33.37 -27.89,69.26 4.133,35.92 23.429,63.4 42.894,61.15" /><path
         id="path62"
         style="fill:#65272b;fill-opacity:1;fill-rule:evenodd;stroke:none"
         d="m 777.992,898.105 c 102.309,-2.722 190.129,71.184 247.688,159.565 15.53,28.84 31.08,57.68 46.62,86.53 -19.66,0.01 -39.32,0.01 -58.98,0.03 67.26,23.47 115.38,25.7 172.92,-20.06 -22.33,9.9 -46.15,21.38 -87.65,21.03 -31.32,-42.56 -43.35,-78.82 -48.97,-130.61 1.21,-60.707 3.05,-91.098 -19.17,-147.246 -32.419,-70.875 -101.059,-50.77 -150.11,-27.379 -31.977,20.488 -70.371,37.66 -102.348,58.14" /><path
         id="path64"
         style="fill:#ec404a;fill-opacity:1;fill-rule:evenodd;stroke:none"
         d="m 887.602,857.137 c -4.524,13.773 10.531,26.328 68.648,36.226 -0.379,22.7 23.547,32.242 31.707,37.84 14.313,7.789 29.283,10.883 45.723,3.695 2.19,-8.886 3.32,-18.41 -3,-32.453 -5.39,-19.988 -14.72,-35.402 -27.97,-46.23 -16.651,-13.442 -34.745,-16.586 -53.487,-15.063 -25.782,0.536 -43.465,8.481 -61.621,15.985" /><path
         id="path66"
         style="fill:#ec7582;fill-opacity:1;fill-rule:evenodd;stroke:none"
         d="m 916.898,864.691 c -2.933,8.946 6.84,17.098 44.575,23.52 -0.246,14.738 15.285,20.937 20.586,24.566 9.289,5.059 19.011,7.071 29.671,2.403 1.43,-5.77 2.16,-11.95 -1.94,-21.071 -3.5,-12.976 -9.55,-22.984 -18.153,-30.011 -10.813,-8.731 -22.559,-10.774 -34.731,-9.782 -16.738,0.348 -28.218,5.504 -40.008,10.375" /><path
         id="path68"
         style="fill:#231f20;fill-opacity:1;fill-rule:nonzero;stroke:none"
         d="m 754.91,1696.19 c -14.332,-35.47 -20.094,-65.56 -19.574,-91.7 0.516,-25.99 5.234,-44.68 15.844,-64.59 -11.442,-2.71 -19.457,-12.79 -22.207,-16.4 -1.7,1.26 -3.535,2.73 -5.528,4.43 -18.422,8.3 -35.812,18.16 -51.84,30.05 -24.738,18.37 -46.105,41.56 -62.773,71.35 -11.512,22.6 0.219,27.16 14.656,0.12 15.485,-27.65 35.149,-49.08 57.828,-65.92 6.614,-4.92 13.524,-9.45 20.657,-13.65 -7.832,9.67 -14.746,20.47 -20.524,32.66 -13.011,27.46 -20.25,61.78 -19.5,105.53 1.614,33.15 15.035,39.4 13.719,-0.3 -0.672,-40.62 5.937,-72.32 17.859,-97.48 11.055,-23.31 26.739,-41.13 45.45,-55.39 -9.243,19.73 -14.993,41.65 -15.481,66.86 -0.562,28.53 5.621,61.15 21.074,99.33 12.528,28.57 24.868,29.53 10.34,-4.9" /><path
         id="path70"
         style="fill:#231f20;fill-opacity:1;fill-rule:nonzero;stroke:none"
         d="m 557.695,1586.78 c -2.75,-26.78 0.598,-48.15 8.352,-65.54 6.379,-14.33 15.816,-26.06 27.328,-35.97 -1.953,-3.27 -7.625,-12.14 -10.242,-18.89 -18.914,1.59 -37.258,5.87 -54.762,14.11 -20.422,9.62 -39.613,24.62 -57.039,46.99 -12.457,17.3 -5.57,24.86 9.789,4.35 16.188,-20.78 33.875,-34.65 52.594,-43.47 10.18,-4.79 20.703,-8.09 31.523,-10.22 -8.519,4.23 -16.562,9.4 -24.031,15.72 -15.504,13.14 -28.43,31.11 -37.785,55.82 -6.332,18.88 1.832,24.77 9.871,2.24 8.699,-22.92 20.578,-39.54 34.785,-51.57 10.363,-8.78 22.016,-15.12 34.606,-19.72 -10.942,10.16 -19.957,22.02 -26.313,36.28 -8.465,18.99 -12.121,42.15 -9.176,70.98 3.067,21.77 13.676,25 10.5,-1.11" /><path
         id="path72"
         style="fill:#f79aaa;fill-opacity:1;fill-rule:evenodd;stroke:none"
         d="m 1116.32,1224.18 c 7.52,19.16 36.24,39.31 56.61,36.96 21.24,1.15 49.13,-0.34 69.49,-13.7 29.44,-11.91 37.38,-90.54 23.16,-104.33 -4.93,-16.11 -33.02,-41.02 -47.18,-28.36 -14.15,12.65 -22.95,43.13 -39.89,51.93 -16.94,8.79 -37.31,11.14 -52.76,15 -15.44,3.85 -16.95,23.34 -9.43,42.5" /><path
         id="path74"
         style="fill:#fef5f5;fill-opacity:1;fill-rule:evenodd;stroke:none"
         d="m 581.512,735.828 c -21.293,11.395 -47.903,29.363 -53.871,51.262 -52.25,30.144 -112.899,41.246 -158.75,84.211 -27.207,17.687 -45.11,45.355 -57.7,70.554 -49.597,52.141 -59.05,97.055 -65.113,141.375 -1.48,74.42 16.692,138.74 78.067,180.8 -0.079,0.15 -0.149,0.31 -0.223,0.47 5.418,-23 25.43,-62.34 51.348,-79.41 0.96,-19.78 4.535,-32.65 8.441,-53.39 14.074,-37.68 31.832,-71.26 53.227,-100.86 35.578,69.29 101.218,84.11 100.527,-94.656 66.14,-36.11 137.875,-56.231 214.683,-46.25 11.883,-4.672 23.594,-9.688 35.223,-14.946 26.031,-33.035 37.504,-72.773 7.91,-106.847 -40.304,-46.411 -139.093,-58.332 -212.711,-32.868 -0.511,0.254 -0.82,0.415 -1.058,0.555" /><path
         id="path76"
         style="fill:#796057;fill-opacity:1;fill-rule:evenodd;stroke:none"
         d="m 430.77,1014.7 c -6.375,-48.563 -10.028,-102.345 -1.918,-140.837 3.007,-52.933 78.086,-89.535 91.765,-23.996 4.192,24.672 8.387,49.34 12.586,74.008 -6.773,-17.168 -15.578,-65.484 -27.004,-81.164 -10.707,-9.809 -22.777,-16.996 -44.25,-5.875 -39.39,31.594 -31.371,113.953 -31.179,177.864" /><path
         id="path78"
         style="fill:#f5e2e1;fill-opacity:1;fill-rule:evenodd;stroke:none"
         d="m 537.527,786.828 c 82.825,-38.535 182.778,-0.828 210.418,95.57 34.223,-23.187 48.805,-71.484 6.336,-112.14 -25.172,-19.375 -52.699,-28.625 -81.828,-30.934 -64.031,3.196 -102.988,23.024 -134.926,47.504" /><path
         id="path80"
         style="fill:#f5e2e1;fill-opacity:1;fill-rule:evenodd;stroke:none"
         d="m 299.098,1219.05 c 42.715,71 16.191,-136.36 73.312,-208.35 8.164,-10.29 21.281,-17.305 24.203,-39.602 10.035,-71.364 -58.539,-74.332 -106.347,12.824 -19.164,25.328 -28.188,52.928 -30.262,82.078 3.719,64 14.351,121.32 39.094,153.05" /><path
         id="path82"
         style="fill:#fef5f5;fill-opacity:1;fill-rule:evenodd;stroke:none"
         d="m 1501.36,496.066 c -10.94,-23.269 -37.56,-60.074 -64.04,-65.98 -56.09,-7.922 -112.68,13.863 -157.97,39.617 -36.15,-30.73 -74.22,-51.32 -115.41,-62.39 -72.78,-28.637 -129.17,-6.161 -183.21,23.609 -8.234,-10.734 -17.531,-16.461 -26.968,-21.473 -48.004,-11.808 -74.774,5.371 -95.598,30.66 -7.086,13.996 -6.801,25.614 -7.988,37.704 -19.352,32.218 27.437,132.257 54.621,159.171 134.183,140 400.043,50.274 549.123,-55.574 5.58,0.106 47.79,-39.347 47.44,-85.344" /><path
         id="path84"
         style="fill:#8d646e;fill-opacity:1;fill-rule:evenodd;stroke:none"
         d="m 1204.39,616.391 c -23.75,-14.118 -47.51,-28.235 -71.26,-42.352 -45.04,-24.383 -86.22,-34.137 -135.114,-34.418 -33.098,-0.598 -65.36,-56.98 -35.571,-98.945 9.614,-12.051 31.75,-4.828 18.754,11.543 -9.324,8.519 -14.969,20.273 -12.531,39.129 8.32,24.773 27.828,36.078 58.522,33.902 39.8,3.781 74.28,2.305 177.2,91.141" /><path
         id="path86"
         style="fill:#8d646e;fill-opacity:1;fill-rule:evenodd;stroke:none"
         d="m 1043.68,667.133 c -65.477,-27.754 -111.133,-59.723 -157.16,-104 -28.692,-34.367 -38.719,-53.742 -30.192,-89.27 13.309,47.926 26.844,68.7 67.789,106.535 37.43,33.438 77.023,63.051 119.563,86.735" /><path
         id="path88"
         style="fill:#f5e2e1;fill-opacity:1;fill-rule:evenodd;stroke:none"
         d="m 1015.21,442.625 c -58.261,32.25 108.75,14.316 164.63,59.586 7.98,6.473 13.2,16.746 30.97,19.301 56.87,8.707 61.43,-44.492 -6.89,-82.727 -19.69,-15.203 -41.52,-22.562 -64.81,-24.543 -51.41,2.063 -97.68,9.582 -123.9,28.383" /><path
         id="path90"
         style="fill:#f5e2e1;fill-opacity:1;fill-rule:evenodd;stroke:none"
         d="m 1297.51,472.367 c -41.48,31.063 85.37,-0.539 133.27,28.418 6.84,4.137 11.95,11.504 25.92,11.578 44.78,0.66 42.63,-40.836 -14.11,-63.039 -16.79,-9.629 -34.41,-12.976 -52.58,-12.027 -39.41,7.062 -74.28,17.785 -92.5,35.07" /><path
         id="path92"
         style="fill:#f4f2fa;fill-opacity:1;fill-rule:evenodd;stroke:none"
         d="m 1520.92,1795.14 c -22.06,9.19 -36.64,21.25 -43.74,36.16 -11.02,20.74 -7.41,36.8 -1.7,52.19 6.27,16.76 15.78,27.24 28.52,31.43 13.41,19.56 27.74,35.88 43.7,38.87 13.11,5.89 37.64,-0.73 46.35,-24.95 18.18,-3.11 32.23,-6.86 42.42,-37.96 9.27,-14.78 14.97,-31.4 12.81,-52.06 -15.69,-37.2 -37.96,-44.61 -60.52,-50.69 -6.26,-7.59 -55.82,-0.22 -67.84,7.01" /><path
         id="path94"
         style="fill:#f4f2fa;fill-opacity:1;fill-rule:evenodd;stroke:none"
         d="m 877.766,1780.44 c 0.461,0.33 0.922,0.67 1.394,1 12.465,-1.1 21.656,5.72 38.848,3.94 76.539,-8.97 167.512,-50.38 241.702,-73.02 42.29,-8.81 153.56,-66.4 157.56,-120.55 -32.13,-39.94 -43.52,-93.18 -152.71,-32.29 -13.68,5.61 -70.64,41.77 -88.85,60.07 -41.12,24.91 -99.913,52.41 -156.96,58.66 -11.996,0.85 -23.797,4.27 -32.789,4.12 -12.617,3.15 -17.781,2.13 -29.809,3.44 -5.589,2.83 -83.808,-31.59 -47.843,46.18 11.808,32.86 45.714,35.34 69.457,48.45" /><path
         id="path96"
         style="fill:#f4f2fa;fill-opacity:1;fill-rule:evenodd;stroke:none"
         d="m 1543.43,1137.79 c 14.02,-24.67 -37.71,-34.31 -66.03,-38.02 -28.32,-3.7 -62.33,-23.98 -59.79,-0.93 2.53,23.05 24.39,57.95 46.7,84.37 22.31,26.42 65.1,-20.76 79.12,-45.42" /><path
         id="path98"
         style="fill:#ed1c24;fill-opacity:1;fill-rule:evenodd;stroke:none"
         d="m 1191.67,891.637 c 33.95,-7.633 62.5,-24.977 104.76,-71.918 50.91,-73.973 92.61,-85.098 168.02,-117.184 51.37,-17.238 120.76,-40.91 135.68,-118.824 3.85,-47.133 -24.08,-81.691 -98.77,-87.645 0.35,45.997 -41.86,85.45 -47.44,85.344 -149.08,105.848 -414.94,195.574 -549.123,55.574 -26.453,-26.187 -71.453,-121.613 -56.024,-156.414 -3.652,7.102 -7.316,14.196 -10.968,21.293 -7.289,-15.39 -15.75,-28.496 -26.797,-36.593 -13.52,-7.547 -24.301,-13.688 -37.903,-14.344 C 750.434,400.332 714,395.055 678.914,382.121 574.633,331.914 344.047,397.164 371.762,535.852 c -1.504,54.515 16.718,98.371 56.144,119.953 35.207,30.175 80.875,42.488 108.078,42.968 0.434,0.071 3.02,-0.062 3.856,-0.039 -42.371,-38.66 -81.93,-106.293 -83.426,-134.746 -8.258,-32.125 32.887,-91.765 88.652,-98.265 42.989,-2.532 60.395,15 82.329,36.113 36.933,54.973 81.625,148.875 107.293,224.027 0.648,2.282 1.292,4.567 1.933,6.844 24.176,7.688 44.844,19.531 58.66,35.434 29.594,34.074 18.121,73.812 -7.91,106.847 -1.121,0.821 0.5,-0.008 1.957,-0.886 56.086,-25.637 111.715,-57.774 171.149,-84.844 57.933,-21.938 88.333,-5.559 112.213,8.273 36.59,29.481 55.72,68.016 82.6,86.727 3.34,1.715 25.89,8.269 36.38,7.379 z M 856.008,444.863 c -0.004,-0.004 -0.004,-0.011 -0.008,-0.019 -0.043,0.101 -0.074,0.203 -0.117,0.301 0.043,-0.09 0.086,-0.188 0.125,-0.282 z m -0.711,1.817 c -0.086,0.23 -0.168,0.468 -0.254,0.695 0.086,-0.23 0.168,-0.461 0.254,-0.695 z m -0.809,2.308 c -0.062,0.203 -0.125,0.41 -0.191,0.61 l 0.191,-0.61 z m -1.164,4.016 c -0.148,0.598 -0.293,1.199 -0.426,1.789 0.133,-0.594 0.278,-1.191 0.426,-1.789 z m -0.543,2.305 c -0.043,0.211 -0.09,0.421 -0.129,0.632 0.047,-0.211 0.086,-0.421 0.129,-0.632 z m -0.215,1.035 c -0.046,0.242 -0.093,0.484 -0.144,0.726 0.051,-0.246 0.098,-0.48 0.144,-0.726 z m -0.226,1.16 c -0.043,0.223 -0.082,0.449 -0.121,0.676 0.039,-0.227 0.082,-0.453 0.121,-0.676 z m -0.61,3.777 c -0.085,0.617 -0.156,1.239 -0.23,1.852 0.074,-0.61 0.145,-1.235 0.23,-1.852 z m -0.25,2.035 c -0.035,0.301 -0.074,0.602 -0.109,0.899 0.035,-0.297 0.07,-0.594 0.109,-0.899 z m -0.226,2.09 c -0.027,0.27 -0.055,0.543 -0.082,0.817 0.031,-0.27 0.051,-0.543 0.082,-0.817 z m -0.231,2.43 c -0.019,0.211 -0.039,0.418 -0.054,0.633 0.015,-0.215 0.035,-0.422 0.054,-0.633 z m -0.109,1.262 c -0.031,0.355 -0.055,0.718 -0.082,1.074 0.027,-0.356 0.051,-0.719 0.082,-1.074 z m -0.195,2.511 c -0.016,0.176 -0.031,0.356 -0.043,0.532 l 0.043,-0.532" /><path
         id="path100"
         style="fill:#f0a592;fill-opacity:1;fill-rule:evenodd;stroke:none"
         d="M 413.457,566.805 C 396.668,491.965 537.316,375.098 620.965,465.063 584.488,354.098 456.535,412.941 429.457,454.508 c -33.223,67.07 -23.473,92.125 -16,112.297" /><path
         id="path102"
         style="fill:#b3252d;fill-opacity:1;fill-rule:evenodd;stroke:none"
         d="m 1557.42,509.223 c -14.56,-6.778 -33.09,-11.328 -56.06,-13.157 0.35,45.997 -41.86,85.45 -47.44,85.344 -24.54,17.453 -50.4,33.153 -76.96,47.324 -0.3,0.157 -0.6,0.313 -0.89,0.473 -37.07,19.711 -75.81,36.586 -115.67,49.832 -0.86,0.285 -1.73,0.566 -2.6,0.856 -40.03,13.164 -81.6,22.972 -123.61,26.933 -0.97,0.094 -1.94,0.199 -2.91,0.285 -13.52,12.645 -25.01,27.032 -33.65,43.813 -13.66,34.765 15.48,70.929 22.53,78.051 16.82,11.386 55.85,18.812 77.7,7.683 -160.98,-56.215 74.79,-134.34 140.74,-155.488 74.56,-23.914 213.51,-80.297 218.82,-171.949" /><path
         id="path104"
         style="fill:#b3252d;fill-opacity:1;fill-rule:evenodd;stroke:none"
         d="m 837.805,501.863 c -7.289,-15.39 -15.75,-28.496 -26.797,-36.593 -12.766,-7.125 -23.078,-12.997 -35.641,-14.18 -11.898,37.82 23.863,121.051 -68.195,173.941 18.195,-5.836 48.523,-15.562 66.719,-21.398 26.289,-8.43 41.812,-15.641 39.41,18.582 -2.485,40.93 1.179,73.203 14.793,115.664 16.211,50.547 1.297,4.043 0.879,-18.121 0.457,-40.285 13.125,-91.172 6.222,-133.555 -4.183,0.5 5.508,-77.515 2.61,-84.34" /><path
         id="path106"
         style="fill:#ffffff;fill-opacity:1;fill-rule:evenodd;stroke:none"
         d="m 1389.75,1056.06 c 4.79,-6.61 10.75,-11.71 17.21,-14.93 17.79,-10.84 41.21,-12.52 60.87,-10.34 22.95,2.53 40.75,21.59 59.01,36.43 2.54,1.44 5.39,3.24 8.45,5.33 -14.66,-4.51 -30.43,-6.23 -46.99,-4.86 l -7.05,1.39 c -31.12,-16.12 -59.98,-22.15 -91.5,-13.02" /><path
         id="path108"
         style="fill:#ffffff;fill-opacity:1;fill-rule:evenodd;stroke:none"
         d="m 1859.68,1320.45 c 60.81,5.93 140.13,42.27 141.35,61.12 2.05,17.85 -70.43,6.64 -89.32,10.73 -9.87,0.11 -21.52,0.28 -33.85,1.59 -0.65,-6.16 -1.5,-12.36 -2.61,-18.57 -3.86,-18.61 -9.01,-37.01 -15.57,-54.87" /><path
         id="path110"
         style="fill:#4c755d;fill-opacity:1;fill-rule:evenodd;stroke:none"
         d="m 2377.13,1678.68 c 20.82,-0.67 41.29,-6.64 65.51,-20.03 47.36,-36.1 28.65,-102.27 -41.53,-88.91 -6.95,2.95 -15.82,2.54 -7.87,-40.07 7.59,-31.85 -22.36,-39.85 -36.97,-38.07 -14.61,1.77 -31.08,20.35 -38.31,29.74 -4.81,6.29 0.02,-37.37 -16.25,-39.17 -38.65,-4.28 -69.2,67.1 -61.4,-3.4 4.46,-40.3 -48.82,-5.41 -56.04,3.98 -21.65,28.21 -26.79,-36.96 -65.29,13.16 -57.75,75.19 -20.1,-97.38 -87.67,10.7 -7.59,12.76 -26.22,-60.69 -66.21,2.87 -12.4,19.02 -21.43,-29.58 -51.95,-32.96 -18.3,-2.02 -12.4,19.03 -18.32,35.36 -6.77,3.07 -16.09,-11.12 -25.03,-23.93 -8.92,31.57 -23.99,61.62 -44.33,89.48 -0.26,0.35 -0.53,0.7 -0.8,1.04 1.86,12.49 3.08,22.62 2.04,27.86 -2.97,43.99 127.65,-74.26 138.32,52.7 4.76,68.51 45.11,1.59 63.62,-16.74 66.8,-64 147.76,23.14 186.05,-6.61 42.75,-32.65 116.33,9.48 152.38,37.27 2.96,2.46 6.33,4.35 10.05,5.73" /><path
         id="path112"
         style="fill:#4c755d;fill-opacity:1;fill-rule:evenodd;stroke:none"
         d="m 1681.52,1740.47 c -8.02,-0.89 -16.5,16.84 -15.84,46.93 9.17,10.55 16.73,23.24 23.67,38.45 0.38,4.69 0.54,9.24 0.49,13.7 13.18,-9.55 24.46,-19.76 37.36,-27.75 20.23,-12.51 57.62,1.83 85.48,13.55 27.87,11.78 34.7,16.37 54.14,-9.98 19.43,-26.32 30.93,-82.43 28.87,-112.57 -1.98,-30.14 -22.24,-43.61 -39.36,-43.9 -17.11,-0.25 -15.81,49.12 -34.73,42.78 -18.89,-6.36 -19.51,-68.13 -41.91,-68.44 -22.4,-0.36 -13.55,59.68 -32.17,67.35 -14.34,5.83 -20.79,-23.72 -30.77,-34.38 -5.95,2.82 -11.92,5.42 -17.94,7.82 -3.86,15.56 1.4,41.86 -9.01,49.9 -7,6.34 -11.29,7.11 -8.28,16.54" /><path
         id="path114"
         style="fill:#ffffff;fill-opacity:1;fill-rule:evenodd;stroke:none"
         d="m 1470.52,710.633 c 55.93,-1.496 93.24,26.625 151.52,40.023 58.98,13.563 58.99,-107.406 -2.36,-121.511 -7.08,-1.629 -14.24,-4.895 -21.49,-9.012 -7.73,15.586 -18.88,29.988 -31.98,42.101 -28.2,23.848 -61.19,36.782 -95.69,48.399" /><path
         id="path116"
         style="fill:#dfeaee;fill-opacity:1;fill-rule:evenodd;stroke:none"
         d="M 1941.46,100.672 C 1469.49,70.707 997.512,40.7383 525.531,10.7656 213.43,3.07422 33.4297,50.7266 8.24609,214.262 15.6016,469.188 62.9102,724.141 95.9609,979.094 104.531,791.895 113.094,604.695 121.66,417.5 135.078,223.27 292.602,181.371 470.703,161.223 960.957,141.039 1451.21,120.855 1941.46,100.672" /><path
         id="path118"
         style="fill:#dfeaee;fill-opacity:1;fill-rule:evenodd;stroke:none"
         d="m 991.863,2973.02 c 434.017,39.31 868.037,78.62 1302.057,117.93 287.3,14.83 454.29,-24.6 481.54,-174.61 4.23,-235.57 -34.89,-471.13 -61.83,-706.7 -12.54,172.22 -25.07,344.45 -37.6,516.67 -17.18,178.58 -163.32,213.27 -327.88,227.41 -452.1,6.44 -904.19,12.87 -1356.287,19.3" /></g></g></svg>