<?xml version="1.0" encoding="utf-8"?>
<!-- Generator: Adobe Illustrator 14.0.0, SVG Export Plug-In . SVG Version: 6.00 Build 43363)  -->
<!DOCTYPE svg PUBLIC "-//W3C//DTD SVG 1.1//EN" "http://www.w3.org/Graphics/SVG/1.1/DTD/svg11.dtd">
<svg version="1.1" id="Layer_1" xmlns="http://www.w3.org/2000/svg" xmlns:xlink="http://www.w3.org/1999/xlink" x="0px" y="0px"
	 width="612px" height="792px" viewBox="0 0 612 792" enable-background="new 0 0 612 792" xml:space="preserve">
<g>

	<path fill-rule="evenodd" clip-rule="evenodd" d="M362.827,451.179c-2.845-2.362-6.632-3.286-10.663-2.604
		c-0.023,0.004-0.046,0.009-0.068,0.013c-6.32,1.157-12.606,2.085-18.871,2.791c9.91-9.337,18.432-20.988,24.973-34.262
		c8.972-18.207,13.714-38.61,13.714-59.003c0-4.093-0.189-8.131-0.563-12.002c-0.161-1.669-1.11-3.162-2.556-4.014
		c-16.505-9.742-40.195-15.328-64.997-15.328c-24.8,0-48.491,5.588-64.997,15.331c-1.445,0.853-2.395,2.345-2.556,4.014
		c-0.373,3.871-0.562,7.908-0.562,12c0,20.615,4.774,41.046,13.808,59.085c6.572,13.126,15.249,24.761,25.421,34.205
		c-6.342-0.709-12.705-1.646-19.103-2.816c-0.022-0.004-0.045-0.009-0.068-0.013c-4.032-0.683-7.819,0.241-10.663,2.604
		c-2.768,2.298-4.326,5.708-4.389,9.603c-0.001,0.056-0.001,0.112,0,0.168c0.118,7.353,5.587,14.443,12.722,16.495
		c0.033,0.01,0.067,0.02,0.1,0.028c33.942,9.039,66.941,9.039,100.884,0c0.033-0.009,0.066-0.019,0.1-0.028
		c7.135-2.05,12.604-9.142,12.724-16.494c0-0.057,0-0.112,0-0.169C367.153,456.887,365.595,453.477,362.827,451.179L362.827,451.179
		z"/>
	<path fill-rule="evenodd" clip-rule="evenodd" fill="#FCAF17" d="M361.149,453.196c-2.246-1.865-5.281-2.588-8.547-2.034
		c-9.158,1.676-18.242,2.883-27.294,3.622c12.308-9.827,22.819-23.17,30.533-38.826c8.796-17.848,13.444-37.85,13.444-57.844
		c0-4.009-0.185-7.962-0.55-11.751c-0.081-0.834-0.556-1.581-1.278-2.007c-16.112-9.51-39.316-14.964-63.662-14.964
		c-24.344,0-47.548,5.456-63.662,14.967c-0.723,0.427-1.198,1.172-1.278,2.007c-0.365,3.788-0.55,7.74-0.55,11.748
		c0,20.209,4.679,40.235,13.53,57.913c7.732,15.44,18.424,28.77,31.058,38.782c-9.151-0.736-18.335-1.951-27.594-3.646
		c-3.265-0.554-6.3,0.169-8.547,2.034c-2.169,1.801-3.392,4.51-3.442,7.627c0,0.028,0,0.057,0,0.085
		c0.1,6.244,4.753,12.27,10.874,14.029c33.487,8.918,66.044,8.918,99.582-0.014c6.07-1.744,10.724-7.77,10.824-14.016
		c0-0.028,0-0.057,0-0.085C364.541,457.706,363.319,454.997,361.149,453.196L361.149,453.196z"/>
	<polygon fill-rule="evenodd" clip-rule="evenodd" fill="#F04E29" points="265.599,474.964 265.599,459.079 304.801,459.079 
		304.801,479.035 303.952,479.038 302.915,479.035 301.878,479.026 300.842,479.011 299.805,478.99 298.768,478.963 297.731,478.93 
		296.694,478.891 295.657,478.846 294.619,478.795 293.582,478.737 292.544,478.675 291.506,478.605 290.467,478.53 
		289.429,478.449 288.39,478.362 287.351,478.27 286.312,478.17 285.271,478.064 284.231,477.953 283.19,477.837 282.149,477.713 
		281.108,477.584 280.066,477.449 279.023,477.308 277.98,477.161 276.937,477.008 275.893,476.849 274.848,476.684 
		273.803,476.512 272.757,476.335 271.71,476.151 270.664,475.962 269.615,475.768 268.567,475.565 267.518,475.358 
		266.468,475.146 265.599,474.964 	"/>
	<path fill-rule="evenodd" clip-rule="evenodd" fill="#DF4926" d="M265.599,463.917c2.669-0.006,4.831-2.17,4.831-4.838h-4.831
		V463.917L265.599,463.917z"/>
	<path fill-rule="evenodd" clip-rule="evenodd" fill="#DF4926" d="M285.178,463.917c2.674,0,4.842-2.166,4.842-4.838h-9.684
		C280.336,461.751,282.504,463.917,285.178,463.917L285.178,463.917z"/>
	<path fill-rule="evenodd" clip-rule="evenodd" fill="#DF4926" d="M304.768,463.917c0.011,0,0.021,0,0.033,0v-4.838h-4.875
		C299.926,461.751,302.094,463.917,304.768,463.917L304.768,463.917z"/>
	<path fill-rule="evenodd" clip-rule="evenodd" fill="#DF4926" d="M275.367,476.019c2.674,0,4.841-2.166,4.841-4.838
		c0-2.673-2.167-4.838-4.841-4.838s-4.841,2.165-4.841,4.838C270.525,473.853,272.693,476.019,275.367,476.019L275.367,476.019z"/>
	<path fill-rule="evenodd" clip-rule="evenodd" fill="#DF4926" d="M294.957,476.019c2.674,0,4.842-2.166,4.842-4.838
		c0-2.673-2.168-4.838-4.842-4.838c-2.674,0-4.841,2.165-4.841,4.838C290.115,473.853,292.282,476.019,294.957,476.019
		L294.957,476.019z"/>
	<path fill-rule="evenodd" clip-rule="evenodd" fill="#DF4926" d="M304.801,479.03c-0.011-0.001-0.022-0.001-0.033-0.001
		c-0.089,0-0.177,0.002-0.265,0.007l0.297-0.001V479.03L304.801,479.03z"/>
	<polygon fill-rule="evenodd" clip-rule="evenodd" fill="#F04E29" points="304.801,479.035 304.801,459.079 344.002,459.079 
		344.002,474.599 343.538,474.701 342.486,474.926 341.436,475.146 340.386,475.358 339.336,475.566 338.288,475.768 
		337.24,475.962 336.192,476.151 335.146,476.335 334.101,476.512 333.055,476.684 332.011,476.849 330.966,477.008 
		329.923,477.161 328.88,477.308 327.837,477.449 326.795,477.584 325.754,477.714 324.713,477.837 323.672,477.954 
		322.632,478.064 321.592,478.17 320.552,478.27 319.513,478.362 318.474,478.449 317.436,478.53 316.397,478.605 315.359,478.675 
		314.321,478.737 313.283,478.795 312.246,478.846 311.209,478.891 310.172,478.93 309.135,478.963 308.099,478.99 307.062,479.011 
		306.024,479.026 304.988,479.035 304.801,479.035 	"/>
	<path fill-rule="evenodd" clip-rule="evenodd" fill="#DF4926" d="M304.801,463.917c2.669-0.006,4.83-2.17,4.83-4.838h-4.83V463.917
		L304.801,463.917z"/>
	<path fill-rule="evenodd" clip-rule="evenodd" fill="#DF4926" d="M324.38,463.917c2.674,0,4.842-2.166,4.842-4.838h-9.684
		C319.538,461.751,321.705,463.917,324.38,463.917L324.38,463.917z"/>
	<path fill-rule="evenodd" clip-rule="evenodd" fill="#DF4926" d="M343.97,463.917c0.011,0,0.021,0,0.032,0v-4.838h-4.874
		C339.128,461.751,341.296,463.917,343.97,463.917L343.97,463.917z"/>
	<path fill-rule="evenodd" clip-rule="evenodd" fill="#DF4926" d="M314.568,476.019c2.674,0,4.842-2.166,4.842-4.838
		c0-2.673-2.168-4.838-4.842-4.838s-4.842,2.165-4.842,4.838C309.727,473.853,311.895,476.019,314.568,476.019L314.568,476.019z"/>
	<path fill-rule="evenodd" clip-rule="evenodd" fill="#DF4926" d="M334.158,476.019c2.674,0,4.842-2.166,4.842-4.838
		c0-2.673-2.168-4.838-4.842-4.838s-4.842,2.165-4.842,4.838C329.316,473.853,331.484,476.019,334.158,476.019L334.158,476.019z"/>
	<path fill-rule="evenodd" clip-rule="evenodd" fill="#DF4926" d="M305.02,479.035c-0.072-0.004-0.146-0.006-0.219-0.006v0.006
		h0.188H305.02L305.02,479.035z"/>
	<polygon fill-rule="evenodd" clip-rule="evenodd" fill="#F04E29" points="265.599,459.079 265.599,455.509 266.592,455.651 
		267.653,455.799 268.714,455.941 269.773,456.081 270.833,456.216 271.891,456.347 272.948,456.474 274.006,456.596 
		275.062,456.714 276.118,456.828 277.173,456.938 278.228,457.043 279.282,457.145 280.335,457.241 281.389,457.334 
		282.441,457.423 283.493,457.507 284.545,457.587 285.596,457.663 286.647,457.735 287.698,457.803 288.748,457.866 
		289.798,457.925 290.848,457.979 291.897,458.03 292.946,458.077 293.995,458.119 295.044,458.157 296.092,458.19 297.141,458.221 
		298.189,458.245 299.237,458.267 300.285,458.283 301.333,458.296 302.38,458.305 303.428,458.309 304.476,458.309 
		304.801,458.308 304.801,459.079 265.599,459.079 	"/>
	<path fill-rule="evenodd" clip-rule="evenodd" fill="#DF4926" d="M270.429,459.079c0-0.015,0-0.029,0-0.044
		c0-1.136-0.391-2.18-1.047-3.006l-0.668-0.088l-1.061-0.143l-1.062-0.147l-0.993-0.143v3.57H270.429L270.429,459.079z"/>
	<path fill-rule="evenodd" clip-rule="evenodd" fill="#DF4926" d="M290.019,459.079c0-0.015,0.001-0.029,0.001-0.044
		c0-0.38-0.044-0.75-0.127-1.105l-0.094-0.005l-1.05-0.059l-1.05-0.063l-1.05-0.067l-1.051-0.072l-1.051-0.076l-1.052-0.08
		l-1.052-0.084l-1.052-0.089l-0.72-0.063c-0.214,0.547-0.333,1.143-0.333,1.765c0,0.015,0,0.029,0,0.044H290.019L290.019,459.079z"
		/>
	<path fill-rule="evenodd" clip-rule="evenodd" fill="#DF4926" d="M299.985,458.278c-0.039,0.247-0.059,0.5-0.059,0.757
		c0,0.015,0,0.029,0,0.044h4.874v-0.771l-0.325,0.001h-1.048l-1.048-0.004l-1.047-0.009l-1.048-0.013L299.985,458.278
		L299.985,458.278z"/>
	<polygon fill-rule="evenodd" clip-rule="evenodd" fill="#F04E29" points="344.002,474.599 344.002,459.079 361.747,459.079 
		361.883,459.751 361.967,460.865 361.893,461.938 361.709,463.006 361.421,464.06 361.035,465.092 360.557,466.094 
		359.991,467.057 359.346,467.974 358.624,468.836 357.834,469.636 356.979,470.364 356.067,471.014 355.104,471.575 
		354.093,472.041 353.042,472.403 351.982,472.683 350.924,472.956 349.865,473.223 348.809,473.484 347.753,473.74 
		346.698,473.989 345.644,474.232 344.591,474.47 344.002,474.599 	"/>
	<path fill-rule="evenodd" clip-rule="evenodd" fill="#DF4926" d="M344.002,463.917c2.669-0.006,4.831-2.169,4.831-4.838h-4.831
		V463.917L344.002,463.917z"/>
	<path fill-rule="evenodd" clip-rule="evenodd" fill="#DF4926" d="M358.739,459.079c0,1.958,1.164,3.645,2.839,4.405l0.131-0.479
		l0.184-1.067l0.074-1.073l-0.084-1.114l-0.136-0.672H358.739L358.739,459.079z"/>
	<path fill-rule="evenodd" clip-rule="evenodd" fill="#DF4926" d="M358.212,469.254c-0.745-1.714-2.453-2.911-4.442-2.911
		c-2.674,0-4.841,2.165-4.841,4.838c0,0.772,0.181,1.502,0.503,2.149l0.434-0.107l1.059-0.267l1.059-0.273l1.06-0.279l1.051-0.362
		l1.011-0.466l0.964-0.562l0.912-0.649l0.854-0.729L358.212,469.254L358.212,469.254z"/>
	<polygon fill-rule="evenodd" clip-rule="evenodd" fill="#F04E29" points="304.801,459.079 304.801,458.308 305.524,458.305 
		306.571,458.296 307.619,458.283 308.668,458.267 309.716,458.245 310.764,458.221 311.813,458.19 312.86,458.156 313.909,458.119 
		314.958,458.077 316.007,458.03 317.057,457.979 318.106,457.925 319.156,457.866 320.206,457.803 321.257,457.735 
		322.308,457.663 323.359,457.587 324.411,457.507 325.463,457.423 326.516,457.334 327.568,457.241 328.622,457.145 
		329.677,457.043 330.731,456.938 331.786,456.828 332.842,456.714 333.898,456.596 334.955,456.474 336.013,456.347 
		337.071,456.216 338.131,456.081 339.19,455.941 340.251,455.798 341.312,455.65 342.374,455.499 343.437,455.343 344.002,455.258 
		344.002,459.079 304.801,459.079 	"/>
	<path fill-rule="evenodd" clip-rule="evenodd" fill="#DF4926" d="M309.631,459.079c0-0.015,0-0.029,0-0.044
		c0-0.268-0.022-0.53-0.063-0.786l-0.899,0.018l-1.049,0.017l-1.048,0.013l-1.047,0.009l-0.723,0.003v0.771H309.631L309.631,459.079
		z"/>
	<path fill-rule="evenodd" clip-rule="evenodd" fill="#DF4926" d="M329.221,459.079c0-0.015,0.001-0.029,0.001-0.044
		c0-0.679-0.141-1.324-0.394-1.911l-0.206,0.021l-1.054,0.097l-1.053,0.093l-1.053,0.089l-1.052,0.084l-1.052,0.08l-1.052,0.076
		l-1.051,0.072l-1.051,0.067l-0.518,0.031c-0.099,0.384-0.15,0.787-0.15,1.201c0,0.015,0,0.029,0,0.044H329.221L329.221,459.079z"/>
	<path fill-rule="evenodd" clip-rule="evenodd" fill="#DF4926" d="M340.389,455.779c-0.784,0.859-1.261,2.002-1.261,3.256
		c0,0.015,0,0.029,0,0.044h4.874v-3.821l-0.565,0.085l-1.063,0.156l-1.063,0.151L340.389,455.779L340.389,455.779z"/>
	<polygon fill-rule="evenodd" clip-rule="evenodd" fill="#F04E29" points="344.002,459.079 344.002,455.258 344.501,455.183 
		345.565,455.018 346.63,454.849 347.696,454.676 348.764,454.499 349.832,454.317 350.9,454.132 351.971,453.941 353.042,453.748 
		354.176,453.619 355.261,453.621 356.291,453.749 357.258,453.998 358.154,454.363 358.974,454.839 359.71,455.421 
		360.354,456.104 360.901,456.884 361.343,457.755 361.672,458.712 361.747,459.079 344.002,459.079 	"/>
	<path fill-rule="evenodd" clip-rule="evenodd" fill="#DF4926" d="M348.832,459.079c0-0.015,0.001-0.029,0.001-0.044
		c0-1.769-0.951-3.316-2.369-4.16l-0.898,0.143l-1.064,0.165l-0.499,0.075v3.821H348.832L348.832,459.079z"/>
	<path fill-rule="evenodd" clip-rule="evenodd" fill="#DF4926" d="M360.023,455.754c-0.797,0.862-1.284,2.015-1.284,3.281
		c0,0.015,0.001,0.029,0.001,0.044h3.007l-0.075-0.367l-0.329-0.957l-0.441-0.871l-0.547-0.779L360.023,455.754L360.023,455.754z"/>
	<polygon fill-rule="evenodd" clip-rule="evenodd" fill="#F04E29" points="246.157,459.079 265.599,459.079 265.599,474.964 
		265.417,474.926 264.365,474.701 263.313,474.47 262.26,474.232 261.206,473.989 260.15,473.74 259.095,473.484 258.038,473.223 
		256.98,472.956 255.921,472.683 254.862,472.403 253.811,472.041 252.8,471.575 251.836,471.013 250.924,470.364 250.069,469.636 
		249.279,468.836 248.558,467.974 247.912,467.057 247.347,466.093 246.868,465.092 246.482,464.06 246.195,463.006 
		246.011,461.938 245.937,460.865 246.021,459.751 246.157,459.079 	"/>
	<path fill-rule="evenodd" clip-rule="evenodd" fill="#DF4926" d="M246.438,463.896c2.458-0.232,4.381-2.3,4.381-4.816h-4.662
		l-0.136,0.672l-0.084,1.114l0.074,1.073l0.184,1.067L246.438,463.896L246.438,463.896z"/>
	<path fill-rule="evenodd" clip-rule="evenodd" fill="#DF4926" d="M265.566,463.917c0.011,0,0.022,0,0.033,0v-4.838h-4.875
		C260.725,461.751,262.893,463.917,265.566,463.917L265.566,463.917z"/>
	<path fill-rule="evenodd" clip-rule="evenodd" fill="#DF4926" d="M259.901,473.68c0.441-0.729,0.695-1.585,0.695-2.499
		c0-2.673-2.167-4.838-4.842-4.838c-2.409,0-4.406,1.757-4.778,4.059l0.859,0.611l0.964,0.563l1.01,0.466l1.051,0.362l1.06,0.279
		l1.059,0.273l1.058,0.267l1.057,0.262L259.901,473.68L259.901,473.68z"/>
	<polygon fill-rule="evenodd" clip-rule="evenodd" fill="#F04E29" points="265.599,455.509 265.599,459.079 246.157,459.079 
		246.231,458.712 246.561,457.755 247.002,456.884 247.549,456.104 248.194,455.421 248.93,454.839 249.75,454.363 250.646,453.998 
		251.613,453.749 252.643,453.621 253.728,453.619 254.862,453.748 255.933,453.941 257.003,454.132 258.072,454.317 
		259.14,454.499 260.207,454.676 261.273,454.849 262.339,455.018 263.403,455.183 264.467,455.343 265.53,455.499 265.599,455.509 
			"/>
	<path fill-rule="evenodd" clip-rule="evenodd" fill="#DF4926" d="M250.817,459.079c0-0.015,0.001-0.029,0.001-0.044
		c0-1.667-0.844-3.137-2.128-4.007l-0.497,0.393l-0.645,0.684l-0.547,0.779l-0.442,0.871l-0.329,0.957l-0.075,0.367H250.817
		L250.817,459.079z"/>
	<path fill-rule="evenodd" clip-rule="evenodd" fill="#DF4926" d="M262.772,455.085c-1.238,0.876-2.047,2.319-2.047,3.95
		c0,0.015,0,0.029,0,0.044h4.874v-3.57l-0.069-0.01l-1.063-0.156l-1.064-0.16L262.772,455.085L262.772,455.085z"/>
	<polygon fill-rule="evenodd" clip-rule="evenodd" fill="#F04E29" points="265.599,409.416 265.599,384.584 304.801,384.584 
		304.801,409.416 265.599,409.416 	"/>
	<path fill-rule="evenodd" clip-rule="evenodd" fill="#DF4926" d="M265.599,389.422c2.669-0.006,4.831-2.169,4.831-4.838h-4.831
		V389.422L265.599,389.422z"/>
	<path fill-rule="evenodd" clip-rule="evenodd" fill="#DF4926" d="M285.178,389.422c2.674,0,4.842-2.167,4.842-4.838h-9.684
		C280.336,387.256,282.504,389.422,285.178,389.422L285.178,389.422z"/>
	<path fill-rule="evenodd" clip-rule="evenodd" fill="#DF4926" d="M304.768,389.422c0.011,0,0.021,0,0.033,0v-4.838h-4.875
		C299.926,387.256,302.094,389.422,304.768,389.422L304.768,389.422z"/>
	<path fill-rule="evenodd" clip-rule="evenodd" fill="#DF4926" d="M275.367,401.523c2.674,0,4.841-2.166,4.841-4.838
		c0-2.672-2.167-4.838-4.841-4.838s-4.841,2.166-4.841,4.838C270.525,399.357,272.693,401.523,275.367,401.523L275.367,401.523z"/>
	<path fill-rule="evenodd" clip-rule="evenodd" fill="#DF4926" d="M294.957,401.523c2.674,0,4.842-2.166,4.842-4.838
		c0-2.672-2.168-4.838-4.842-4.838c-2.674,0-4.841,2.166-4.841,4.838C290.115,399.357,292.282,401.523,294.957,401.523
		L294.957,401.523z"/>
	<path fill-rule="evenodd" clip-rule="evenodd" fill="#DF4926" d="M270.429,409.416c0-0.015,0-0.029,0-0.044
		c0-2.668-2.162-4.832-4.831-4.838v4.882H270.429L270.429,409.416z"/>
	<path fill-rule="evenodd" clip-rule="evenodd" fill="#DF4926" d="M290.019,409.416c0-0.015,0.001-0.029,0.001-0.044
		c0-2.672-2.168-4.838-4.842-4.838c-2.674,0-4.841,2.166-4.841,4.838c0,0.015,0,0.029,0,0.044H290.019L290.019,409.416z"/>
	<path fill-rule="evenodd" clip-rule="evenodd" fill="#DF4926" d="M304.801,404.534c-0.011,0-0.022,0-0.033,0
		c-2.674,0-4.842,2.166-4.842,4.838c0,0.015,0,0.029,0,0.044h4.874V404.534L304.801,404.534z"/>
	<polygon fill-rule="evenodd" clip-rule="evenodd" fill="#F04E29" points="304.801,409.416 304.801,384.584 344.002,384.584 
		344.002,409.416 304.801,409.416 	"/>
	<path fill-rule="evenodd" clip-rule="evenodd" fill="#DF4926" d="M304.801,389.422c2.669-0.006,4.83-2.169,4.83-4.838h-4.83
		V389.422L304.801,389.422z"/>
	<path fill-rule="evenodd" clip-rule="evenodd" fill="#DF4926" d="M324.38,389.422c2.674,0,4.842-2.167,4.842-4.838h-9.684
		C319.538,387.256,321.705,389.422,324.38,389.422L324.38,389.422z"/>
	<path fill-rule="evenodd" clip-rule="evenodd" fill="#DF4926" d="M343.97,389.422c0.011,0,0.021,0,0.032,0v-4.838h-4.874
		C339.128,387.256,341.296,389.422,343.97,389.422L343.97,389.422z"/>
	<path fill-rule="evenodd" clip-rule="evenodd" fill="#DF4926" d="M314.568,401.523c2.674,0,4.842-2.166,4.842-4.838
		c0-2.672-2.168-4.838-4.842-4.838s-4.842,2.166-4.842,4.838C309.727,399.357,311.895,401.523,314.568,401.523L314.568,401.523z"/>
	<path fill-rule="evenodd" clip-rule="evenodd" fill="#DF4926" d="M334.158,401.523c2.674,0,4.842-2.166,4.842-4.838
		c0-2.672-2.168-4.838-4.842-4.838s-4.842,2.166-4.842,4.838C329.316,399.357,331.484,401.523,334.158,401.523L334.158,401.523z"/>
	<path fill-rule="evenodd" clip-rule="evenodd" fill="#DF4926" d="M309.631,409.416c0-0.015,0-0.029,0-0.044
		c0-2.668-2.161-4.832-4.83-4.838v4.882H309.631L309.631,409.416z"/>
	<path fill-rule="evenodd" clip-rule="evenodd" fill="#DF4926" d="M329.221,409.416c0-0.015,0.001-0.029,0.001-0.044
		c0-2.672-2.168-4.838-4.842-4.838c-2.675,0-4.842,2.166-4.842,4.838c0,0.015,0,0.029,0,0.044H329.221L329.221,409.416z"/>
	<path fill-rule="evenodd" clip-rule="evenodd" fill="#DF4926" d="M344.002,404.534c-0.011,0-0.021,0-0.032,0
		c-2.674,0-4.842,2.166-4.842,4.838c0,0.015,0,0.029,0,0.044h4.874V404.534L344.002,404.534z"/>
	<polygon fill-rule="evenodd" clip-rule="evenodd" fill="#F04E29" points="265.599,384.584 265.599,359.752 304.801,359.752 
		304.801,384.584 265.599,384.584 	"/>
	<path fill-rule="evenodd" clip-rule="evenodd" fill="#DF4926" d="M265.599,364.59c2.669-0.006,4.831-2.17,4.831-4.838h-4.831
		V364.59L265.599,364.59z"/>
	<path fill-rule="evenodd" clip-rule="evenodd" fill="#DF4926" d="M285.178,364.59c2.674,0,4.842-2.166,4.842-4.838h-9.684
		C280.336,362.424,282.504,364.59,285.178,364.59L285.178,364.59z"/>
	<path fill-rule="evenodd" clip-rule="evenodd" fill="#DF4926" d="M304.768,364.59c0.011,0,0.021,0,0.033,0v-4.837h-4.875
		C299.926,362.424,302.094,364.59,304.768,364.59L304.768,364.59z"/>
	<path fill-rule="evenodd" clip-rule="evenodd" fill="#DF4926" d="M275.367,376.691c2.674,0,4.841-2.166,4.841-4.838
		s-2.167-4.838-4.841-4.838s-4.841,2.166-4.841,4.838S272.693,376.691,275.367,376.691L275.367,376.691z"/>
	<path fill-rule="evenodd" clip-rule="evenodd" fill="#DF4926" d="M294.957,376.691c2.674,0,4.842-2.166,4.842-4.838
		s-2.168-4.838-4.842-4.838c-2.674,0-4.841,2.166-4.841,4.838S292.282,376.691,294.957,376.691L294.957,376.691z"/>
	<path fill-rule="evenodd" clip-rule="evenodd" fill="#DF4926" d="M270.429,384.584c0-0.014,0-0.029,0-0.043
		c0-2.668-2.162-4.832-4.831-4.838v4.881H270.429L270.429,384.584z"/>
	<path fill-rule="evenodd" clip-rule="evenodd" fill="#DF4926" d="M290.02,384.584c0-0.014,0-0.029,0-0.043
		c0-2.672-2.168-4.838-4.842-4.838c-2.674,0-4.841,2.166-4.841,4.838c0,0.015,0,0.029,0,0.043H290.02L290.02,384.584z"/>
	<path fill-rule="evenodd" clip-rule="evenodd" fill="#DF4926" d="M304.801,379.703c-0.011,0-0.022,0-0.033,0
		c-2.674,0-4.842,2.166-4.842,4.838c0,0.015,0,0.029,0,0.043h4.874V379.703L304.801,379.703z"/>
	<polygon fill-rule="evenodd" clip-rule="evenodd" fill="#F04E29" points="344.002,409.416 344.002,384.584 363.903,384.584 
		363.873,384.732 363.643,385.799 363.403,386.862 363.155,387.921 362.899,388.977 362.635,390.028 362.362,391.075 
		362.082,392.117 361.792,393.156 361.495,394.19 361.189,395.219 360.876,396.245 360.555,397.266 360.226,398.281 
		359.889,399.293 359.544,400.3 359.191,401.303 358.831,402.3 358.464,403.292 358.089,404.279 357.706,405.262 357.316,406.239 
		356.919,407.212 356.515,408.179 356.104,409.141 355.983,409.416 344.002,409.416 	"/>
	<path fill-rule="evenodd" clip-rule="evenodd" fill="#DF4926" d="M344.002,389.422c2.669-0.006,4.831-2.169,4.831-4.838h-4.831
		V389.422L344.002,389.422z"/>
	<path fill-rule="evenodd" clip-rule="evenodd" fill="#DF4926" d="M358.739,384.584c0,2.408,1.76,4.404,4.064,4.776l0.096-0.383
		l0.256-1.055l0.248-1.059l0.239-1.063l0.23-1.067l0.03-0.148H358.739L358.739,384.584z"/>
	<path fill-rule="evenodd" clip-rule="evenodd" fill="#DF4926" d="M353.77,401.523c2.674,0,4.842-2.166,4.842-4.838
		c0-2.672-2.168-4.838-4.842-4.838s-4.841,2.166-4.841,4.838C348.929,399.357,351.096,401.523,353.77,401.523L353.77,401.523z"/>
	<path fill-rule="evenodd" clip-rule="evenodd" fill="#DF4926" d="M348.832,409.416c0-0.015,0.001-0.029,0.001-0.044
		c0-2.668-2.162-4.832-4.831-4.838v4.882H348.832L348.832,409.416z"/>
	<polygon fill-rule="evenodd" clip-rule="evenodd" fill="#F04E29" points="304.801,384.584 304.801,359.752 344.002,359.752 
		344.002,384.584 304.801,384.584 	"/>
	<path fill-rule="evenodd" clip-rule="evenodd" fill="#DF4926" d="M304.801,364.59c2.669-0.006,4.83-2.17,4.83-4.838h-4.83V364.59
		L304.801,364.59z"/>
	<path fill-rule="evenodd" clip-rule="evenodd" fill="#DF4926" d="M324.38,364.59c2.674,0,4.842-2.166,4.842-4.838h-9.684
		C319.538,362.424,321.705,364.59,324.38,364.59L324.38,364.59z"/>
	<path fill-rule="evenodd" clip-rule="evenodd" fill="#DF4926" d="M343.97,364.59c0.011,0,0.021,0,0.032,0v-4.837h-4.874
		C339.128,362.424,341.296,364.59,343.97,364.59L343.97,364.59z"/>
	<path fill-rule="evenodd" clip-rule="evenodd" fill="#DF4926" d="M314.568,376.691c2.674,0,4.842-2.166,4.842-4.838
		s-2.168-4.838-4.842-4.838s-4.842,2.166-4.842,4.838S311.895,376.691,314.568,376.691L314.568,376.691z"/>
	<path fill-rule="evenodd" clip-rule="evenodd" fill="#DF4926" d="M334.158,376.691c2.674,0,4.842-2.166,4.842-4.838
		s-2.168-4.838-4.842-4.838s-4.842,2.166-4.842,4.838S331.484,376.691,334.158,376.691L334.158,376.691z"/>
	<path fill-rule="evenodd" clip-rule="evenodd" fill="#DF4926" d="M309.631,384.584c0-0.014,0-0.029,0-0.043
		c0-2.668-2.161-4.832-4.83-4.838v4.881H309.631L309.631,384.584z"/>
	<path fill-rule="evenodd" clip-rule="evenodd" fill="#DF4926" d="M329.221,384.584c0-0.014,0.001-0.029,0.001-0.043
		c0-2.672-2.168-4.838-4.842-4.838c-2.675,0-4.842,2.166-4.842,4.838c0,0.015,0,0.029,0,0.043H329.221L329.221,384.584z"/>
	<path fill-rule="evenodd" clip-rule="evenodd" fill="#DF4926" d="M344.002,379.703c-0.011,0-0.021,0-0.032,0
		c-2.674,0-4.842,2.166-4.842,4.838c0,0.015,0,0.029,0,0.043h4.874V379.703L344.002,379.703z"/>
	<polygon fill-rule="evenodd" clip-rule="evenodd" fill="#F04E29" points="265.599,359.752 265.599,336.823 266.412,336.606 
		267.437,336.343 268.47,336.087 269.51,335.838 270.558,335.596 271.614,335.361 272.678,335.134 273.718,334.921 304.801,334.921 
		304.801,359.752 265.599,359.752 	"/>
	<path fill-rule="evenodd" clip-rule="evenodd" fill="#DF4926" d="M265.599,339.758c2.425-0.005,4.432-1.792,4.778-4.121l-0.867,0.2
		l-1.041,0.249l-1.033,0.256l-1.025,0.263l-0.813,0.216V339.758L265.599,339.758z"/>
	<path fill-rule="evenodd" clip-rule="evenodd" fill="#DF4926" d="M285.178,339.759c2.674,0,4.842-2.166,4.842-4.838h-9.684
		C280.336,337.593,282.504,339.759,285.178,339.759L285.178,339.759z"/>
	<path fill-rule="evenodd" clip-rule="evenodd" fill="#DF4926" d="M304.768,339.759c0.011,0,0.021,0,0.033,0v-4.837h-4.875
		C299.926,337.593,302.094,339.759,304.768,339.759L304.768,339.759z"/>
	<path fill-rule="evenodd" clip-rule="evenodd" fill="#DF4926" d="M275.367,351.86c2.674,0,4.841-2.167,4.841-4.838
		c0-2.671-2.167-4.838-4.841-4.838s-4.841,2.167-4.841,4.838C270.525,349.693,272.693,351.86,275.367,351.86L275.367,351.86z"/>
	<path fill-rule="evenodd" clip-rule="evenodd" fill="#DF4926" d="M294.957,351.86c2.674,0,4.842-2.167,4.842-4.838
		c0-2.671-2.168-4.838-4.842-4.838c-2.674,0-4.841,2.167-4.841,4.838C290.115,349.693,292.282,351.86,294.957,351.86L294.957,351.86
		z"/>
	<path fill-rule="evenodd" clip-rule="evenodd" fill="#DF4926" d="M270.429,359.752c0-0.015,0-0.029,0-0.044
		c0-2.668-2.162-4.832-4.831-4.837v4.881H270.429L270.429,359.752z"/>
	<path fill-rule="evenodd" clip-rule="evenodd" fill="#DF4926" d="M290.02,359.752c0-0.015,0-0.029,0-0.044
		c0-2.672-2.168-4.838-4.842-4.838c-2.674,0-4.841,2.166-4.841,4.838c0,0.015,0,0.029,0,0.044H290.02L290.02,359.752z"/>
	<path fill-rule="evenodd" clip-rule="evenodd" fill="#DF4926" d="M304.801,354.871c-0.011,0-0.022,0-0.033,0
		c-2.674,0-4.842,2.166-4.842,4.838c0,0.015,0,0.029,0,0.044h4.874V354.871L304.801,354.871z"/>
	<polygon fill-rule="evenodd" clip-rule="evenodd" fill="#F04E29" points="344.002,384.584 344.002,359.752 366.649,359.752 
		366.641,360.396 366.615,361.533 366.58,362.667 366.535,363.8 366.479,364.93 366.415,366.056 366.34,367.18 366.256,368.301 
		366.162,369.419 366.059,370.535 365.945,371.647 365.823,372.756 365.691,373.862 365.55,374.964 365.399,376.063 365.24,377.16 
		365.071,378.252 364.895,379.341 364.708,380.427 364.512,381.509 364.308,382.587 364.095,383.662 363.903,384.584 
		344.002,384.584 	"/>
	<path fill-rule="evenodd" clip-rule="evenodd" fill="#DF4926" d="M344.002,364.59c2.669-0.006,4.831-2.169,4.831-4.838h-4.831
		V364.59L344.002,364.59z"/>
	<path fill-rule="evenodd" clip-rule="evenodd" fill="#DF4926" d="M363.581,364.59c1.116,0,2.144-0.377,2.963-1.011l0.036-0.912
		l0.035-1.134l0.025-1.138l0.009-0.643h-7.91C358.739,362.424,360.907,364.59,363.581,364.59L363.581,364.59z"/>
	<path fill-rule="evenodd" clip-rule="evenodd" fill="#DF4926" d="M353.77,376.691c2.674,0,4.842-2.166,4.842-4.838
		s-2.168-4.838-4.842-4.838s-4.841,2.166-4.841,4.838S351.096,376.691,353.77,376.691L353.77,376.691z"/>
	<path fill-rule="evenodd" clip-rule="evenodd" fill="#DF4926" d="M348.832,384.584c0-0.014,0.001-0.029,0.001-0.043
		c0-2.668-2.162-4.832-4.831-4.838v4.881H348.832L348.832,384.584z"/>
	<path fill-rule="evenodd" clip-rule="evenodd" fill="#DF4926" d="M364.805,379.859c-0.391-0.102-0.801-0.156-1.224-0.156
		c-2.674,0-4.842,2.166-4.842,4.838c0,0.015,0.001,0.029,0.001,0.043h5.163l0.191-0.922l0.213-1.075l0.204-1.078l0.196-1.082
		L364.805,379.859L364.805,379.859z"/>
	<polygon fill-rule="evenodd" clip-rule="evenodd" fill="#F04E29" points="304.801,359.752 304.801,334.921 333.879,334.921 
		334.915,335.133 335.978,335.36 337.034,335.595 338.082,335.837 339.123,336.086 340.155,336.342 341.18,336.605 342.196,336.875 
		343.205,337.153 344.002,337.38 344.002,359.752 304.801,359.752 	"/>
	<path fill-rule="evenodd" clip-rule="evenodd" fill="#DF4926" d="M304.801,339.758c2.669-0.006,4.83-2.169,4.83-4.837h-4.83
		V339.758L304.801,339.758z"/>
	<path fill-rule="evenodd" clip-rule="evenodd" fill="#DF4926" d="M324.38,339.759c2.674,0,4.842-2.166,4.842-4.838h-9.684
		C319.538,337.593,321.705,339.759,324.38,339.759L324.38,339.759z"/>
	<path fill-rule="evenodd" clip-rule="evenodd" fill="#DF4926" d="M343.97,339.759c0.011,0,0.021,0,0.032,0v-2.378l-0.797-0.227
		l-1.009-0.277l-1.017-0.271l-1.024-0.263l-0.877-0.218C339.814,338.214,341.711,339.759,343.97,339.759L343.97,339.759z"/>
	<path fill-rule="evenodd" clip-rule="evenodd" fill="#DF4926" d="M314.568,351.86c2.674,0,4.842-2.167,4.842-4.838
		c0-2.671-2.168-4.838-4.842-4.838s-4.842,2.167-4.842,4.838C309.727,349.693,311.895,351.86,314.568,351.86L314.568,351.86z"/>
	<path fill-rule="evenodd" clip-rule="evenodd" fill="#DF4926" d="M334.158,351.86c2.674,0,4.842-2.167,4.842-4.838
		c0-2.671-2.168-4.838-4.842-4.838s-4.842,2.167-4.842,4.838C329.316,349.693,331.484,351.86,334.158,351.86L334.158,351.86z"/>
	<path fill-rule="evenodd" clip-rule="evenodd" fill="#DF4926" d="M309.631,359.752c0-0.015,0-0.029,0-0.044
		c0-2.668-2.161-4.832-4.83-4.837v4.881H309.631L309.631,359.752z"/>
	<path fill-rule="evenodd" clip-rule="evenodd" fill="#DF4926" d="M329.221,359.752c0-0.015,0.001-0.029,0.001-0.044
		c0-2.672-2.168-4.838-4.842-4.838c-2.675,0-4.842,2.166-4.842,4.838c0,0.015,0,0.029,0,0.044H329.221L329.221,359.752z"/>
	<path fill-rule="evenodd" clip-rule="evenodd" fill="#DF4926" d="M344.002,354.871c-0.011,0-0.021,0-0.032,0
		c-2.674,0-4.842,2.166-4.842,4.838c0,0.015,0,0.029,0,0.044h4.874V354.871L344.002,354.871z"/>
	<polygon fill-rule="evenodd" clip-rule="evenodd" fill="#F04E29" points="304.801,332.019 304.801,334.921 273.718,334.921 
		273.749,334.915 274.827,334.702 275.912,334.498 277.004,334.301 278.104,334.111 279.21,333.93 280.322,333.756 281.442,333.59 
		282.568,333.432 283.7,333.282 284.838,333.14 285.983,333.006 287.133,332.88 288.289,332.763 289.451,332.654 290.619,332.553 
		291.792,332.46 292.97,332.377 294.154,332.301 295.342,332.235 296.536,332.177 297.734,332.128 298.938,332.087 300.146,332.056 
		301.358,332.033 302.576,332.02 303.796,332.015 304.801,332.019 	"/>
	<path fill-rule="evenodd" clip-rule="evenodd" fill="#DF4926" d="M290.019,334.921c0-0.015,0.001-0.029,0.001-0.044
		c0-0.803-0.195-1.559-0.542-2.226l-0.027,0.002l-1.162,0.109l-1.156,0.117l-1.15,0.126l-1.145,0.134l-1.138,0.142l-1.132,0.15
		l-1.126,0.158l-0.969,0.144c-0.089,0.367-0.137,0.75-0.137,1.144c0,0.015,0,0.029,0,0.044H290.019L290.019,334.921z"/>
	<path fill-rule="evenodd" clip-rule="evenodd" fill="#DF4926" d="M300.845,332.043c-0.578,0.796-0.919,1.775-0.919,2.834
		c0,0.015,0,0.029,0,0.044h4.874v-2.902l-1.004-0.003l-1.221,0.004l-1.217,0.014L300.845,332.043L300.845,332.043z"/>
	<polygon fill-rule="evenodd" clip-rule="evenodd" fill="#F04E29" points="344.002,359.752 344.002,337.38 344.204,337.437 
		345.195,337.729 346.179,338.026 347.152,338.331 348.117,338.643 349.073,338.96 350.021,339.285 350.958,339.616 
		351.887,339.954 352.806,340.297 353.715,340.647 354.614,341.004 355.504,341.367 356.385,341.735 357.254,342.11 
		358.113,342.491 358.963,342.877 359.802,343.27 360.63,343.668 361.448,344.072 362.255,344.482 363.051,344.897 363.836,345.318 
		364.609,345.745 365.372,346.177 366.123,346.614 366.234,347.843 366.333,349.083 366.42,350.336 366.492,351.601 
		366.553,352.879 366.6,354.169 366.634,355.471 366.654,356.786 366.661,358.114 366.656,359.256 366.649,359.752 344.002,359.752 
			"/>
	<path fill-rule="evenodd" clip-rule="evenodd" fill="#DF4926" d="M344.002,339.758c1.305-0.003,2.487-0.521,3.355-1.361
		l-0.205-0.066l-0.974-0.305l-0.983-0.298l-0.991-0.292l-0.202-0.057V339.758L344.002,339.758z"/>
	<path fill-rule="evenodd" clip-rule="evenodd" fill="#DF4926" d="M353.77,351.86c2.674,0,4.842-2.167,4.842-4.838
		c0-2.671-2.168-4.838-4.842-4.838s-4.841,2.167-4.841,4.838C348.929,349.693,351.096,351.86,353.77,351.86L353.77,351.86z"/>
	<path fill-rule="evenodd" clip-rule="evenodd" fill="#DF4926" d="M348.832,359.752c0-0.015,0.001-0.029,0.001-0.044
		c0-2.668-2.162-4.832-4.831-4.837v4.881H348.832L348.832,359.752z"/>
	<path fill-rule="evenodd" clip-rule="evenodd" fill="#DF4926" d="M366.642,355.96c-0.834-0.681-1.899-1.09-3.061-1.09
		c-2.674,0-4.842,2.166-4.842,4.838c0,0.015,0.001,0.029,0.001,0.044h7.909l0.007-0.497l0.005-1.142l-0.007-1.328L366.642,355.96
		L366.642,355.96z"/>
	<polygon fill-rule="evenodd" clip-rule="evenodd" fill="#F04E29" points="304.801,334.921 304.801,332.019 305.018,332.02 
		306.234,332.033 307.447,332.056 308.654,332.087 309.857,332.127 311.057,332.177 312.25,332.235 313.438,332.301 
		314.623,332.377 315.801,332.46 316.974,332.553 318.142,332.653 319.303,332.763 320.459,332.88 321.609,333.005 322.754,333.14 
		323.893,333.281 325.024,333.431 326.15,333.589 327.27,333.755 328.383,333.929 329.488,334.111 330.588,334.3 331.681,334.497 
		332.766,334.702 333.844,334.914 333.879,334.921 304.801,334.921 	"/>
	<path fill-rule="evenodd" clip-rule="evenodd" fill="#DF4926" d="M309.631,334.921c0-0.015,0-0.029,0-0.044
		c0-1.038-0.327-1.999-0.884-2.787l-0.093-0.003l-1.207-0.032l-1.213-0.022l-1.217-0.014l-0.217-0.001v2.902H309.631
		L309.631,334.921z"/>
	<path fill-rule="evenodd" clip-rule="evenodd" fill="#DF4926" d="M329.221,334.921c0-0.015,0.001-0.029,0.001-0.044
		c0-0.28-0.025-0.555-0.071-0.822l-0.768-0.126l-1.113-0.173l-1.119-0.166l-1.126-0.158l-1.132-0.15l-1.139-0.142l-1.145-0.134
		l-1.15-0.125l-0.469-0.048c-0.29,0.622-0.452,1.314-0.452,2.045c0,0.015,0,0.029,0,0.044H329.221L329.221,334.921z"/>
	<polygon fill-rule="evenodd" clip-rule="evenodd" fill="#F04E29" points="265.599,433.271 265.599,409.416 304.801,409.416 
		304.801,434.247 266.345,434.247 266.067,433.888 265.599,433.271 	"/>
	<path fill-rule="evenodd" clip-rule="evenodd" fill="#DF4926" d="M265.599,414.254c2.669-0.006,4.831-2.17,4.831-4.838h-4.831
		V414.254L265.599,414.254z"/>
	<path fill-rule="evenodd" clip-rule="evenodd" fill="#DF4926" d="M285.178,414.254c2.674,0,4.842-2.166,4.842-4.838h-9.684
		C280.336,412.088,282.504,414.254,285.178,414.254L285.178,414.254z"/>
	<path fill-rule="evenodd" clip-rule="evenodd" fill="#DF4926" d="M304.768,414.254c0.011,0,0.021,0,0.033,0v-4.838h-4.875
		C299.926,412.088,302.094,414.254,304.768,414.254L304.768,414.254z"/>
	<path fill-rule="evenodd" clip-rule="evenodd" fill="#DF4926" d="M275.367,426.354c2.674,0,4.841-2.166,4.841-4.838
		s-2.167-4.838-4.841-4.838s-4.841,2.166-4.841,4.838S272.693,426.354,275.367,426.354L275.367,426.354z"/>
	<path fill-rule="evenodd" clip-rule="evenodd" fill="#DF4926" d="M294.957,426.354c2.674,0,4.842-2.166,4.842-4.838
		s-2.168-4.838-4.842-4.838c-2.674,0-4.841,2.166-4.841,4.838S292.282,426.354,294.957,426.354L294.957,426.354z"/>
	<path fill-rule="evenodd" clip-rule="evenodd" fill="#DF4926" d="M270.429,434.247c0-0.015,0-0.028,0-0.043
		c0-2.668-2.162-4.832-4.831-4.838v3.905l0.468,0.616l0.278,0.359H270.429L270.429,434.247z"/>
	<path fill-rule="evenodd" clip-rule="evenodd" fill="#DF4926" d="M290.019,434.247c0-0.015,0.001-0.028,0.001-0.043
		c0-2.672-2.168-4.838-4.842-4.838c-2.674,0-4.841,2.166-4.841,4.838c0,0.015,0,0.028,0,0.043H290.019L290.019,434.247z"/>
	<path fill-rule="evenodd" clip-rule="evenodd" fill="#DF4926" d="M304.801,429.366c-0.011,0-0.022,0-0.033,0
		c-2.674,0-4.842,2.166-4.842,4.838c0,0.015,0,0.028,0,0.043h4.874V429.366L304.801,429.366z"/>
	<polygon fill-rule="evenodd" clip-rule="evenodd" fill="#F04E29" points="266.345,434.247 304.801,434.247 304.801,455.869 
		303.796,455.873 302.618,455.869 301.442,455.856 300.268,455.835 299.097,455.805 297.928,455.767 296.762,455.721 
		295.599,455.666 294.438,455.604 293.28,455.532 292.126,455.453 290.975,455.367 289.826,455.271 288.681,455.169 
		287.539,455.059 286.803,454.515 286.071,453.963 285.342,453.403 284.617,452.836 283.896,452.26 283.179,451.676 
		282.465,451.085 281.756,450.485 281.05,449.879 280.349,449.264 279.652,448.641 278.959,448.012 278.27,447.374 277.585,446.729 
		276.905,446.076 276.229,445.416 275.558,444.749 274.891,444.074 274.229,443.393 273.572,442.703 272.919,442.007 
		272.271,441.304 271.628,440.594 270.989,439.876 270.356,439.151 269.728,438.42 269.105,437.682 268.487,436.936 
		267.874,436.184 267.266,435.425 266.664,434.66 266.345,434.247 	"/>
	<path fill-rule="evenodd" clip-rule="evenodd" fill="#DF4926" d="M269.056,437.623c0.85-0.872,1.374-2.063,1.374-3.376h-4.084
		l0.319,0.413l0.602,0.765l0.608,0.759l0.613,0.752L269.056,437.623L269.056,437.623z"/>
	<path fill-rule="evenodd" clip-rule="evenodd" fill="#DF4926" d="M285.178,439.086c2.674,0,4.842-2.167,4.842-4.839h-9.684
		C280.336,436.919,282.504,439.086,285.178,439.086L285.178,439.086z"/>
	<path fill-rule="evenodd" clip-rule="evenodd" fill="#DF4926" d="M304.768,439.086c0.011,0,0.021-0.001,0.033-0.001v-4.838h-4.875
		C299.926,436.919,302.094,439.086,304.768,439.086L304.768,439.086z"/>
	<path fill-rule="evenodd" clip-rule="evenodd" fill="#DF4926" d="M279.638,448.629c0.364-0.68,0.57-1.456,0.57-2.28
		c0-2.672-2.167-4.838-4.841-4.838c-0.851,0-1.651,0.22-2.346,0.605l0.551,0.587l0.657,0.689l0.662,0.682l0.667,0.675l0.671,0.667
		l0.676,0.66l0.68,0.652l0.685,0.646l0.689,0.638L279.638,448.629L279.638,448.629z"/>
	<path fill-rule="evenodd" clip-rule="evenodd" fill="#DF4926" d="M294.957,451.187c2.674,0,4.842-2.166,4.842-4.838
		s-2.168-4.838-4.842-4.838c-2.674,0-4.841,2.166-4.841,4.838S292.282,451.187,294.957,451.187L294.957,451.187z"/>
	<path fill-rule="evenodd" clip-rule="evenodd" fill="#DF4926" d="M288,455.104c-0.391-0.28-0.825-0.504-1.29-0.659l0.093,0.07
		l0.736,0.544L288,455.104L288,455.104z"/>
	<path fill-rule="evenodd" clip-rule="evenodd" fill="#DF4926" d="M304.801,454.198c-0.011,0-0.022,0-0.033,0
		c-1.453,0-2.756,0.639-3.644,1.652l0.318,0.006l1.176,0.013l1.179,0.004l1.004-0.004V454.198L304.801,454.198z"/>
	<polygon fill-rule="evenodd" clip-rule="evenodd" fill="#F04E29" points="304.801,434.247 304.801,409.416 344.002,409.416 
		344.002,430.847 343.675,431.313 343.1,432.117 342.52,432.914 341.934,433.705 341.524,434.247 304.801,434.247 	"/>
	<path fill-rule="evenodd" clip-rule="evenodd" fill="#DF4926" d="M304.801,414.254c2.669-0.006,4.83-2.17,4.83-4.838h-4.83V414.254
		L304.801,414.254z"/>
	<path fill-rule="evenodd" clip-rule="evenodd" fill="#DF4926" d="M324.38,414.254c2.674,0,4.842-2.166,4.842-4.838h-9.684
		C319.538,412.088,321.705,414.254,324.38,414.254L324.38,414.254z"/>
	<path fill-rule="evenodd" clip-rule="evenodd" fill="#DF4926" d="M343.97,414.254c0.011,0,0.021,0,0.032,0v-4.838h-4.874
		C339.128,412.088,341.296,414.254,343.97,414.254L343.97,414.254z"/>
	<path fill-rule="evenodd" clip-rule="evenodd" fill="#DF4926" d="M314.568,426.354c2.674,0,4.842-2.166,4.842-4.838
		s-2.168-4.838-4.842-4.838s-4.842,2.166-4.842,4.838S311.895,426.354,314.568,426.354L314.568,426.354z"/>
	<path fill-rule="evenodd" clip-rule="evenodd" fill="#DF4926" d="M334.158,426.354c2.674,0,4.842-2.166,4.842-4.838
		s-2.168-4.838-4.842-4.838s-4.842,2.166-4.842,4.838S331.484,426.354,334.158,426.354L334.158,426.354z"/>
	<path fill-rule="evenodd" clip-rule="evenodd" fill="#DF4926" d="M309.631,434.247c0-0.015,0-0.028,0-0.043
		c0-2.668-2.161-4.832-4.83-4.838v4.881H309.631L309.631,434.247z"/>
	<path fill-rule="evenodd" clip-rule="evenodd" fill="#DF4926" d="M329.221,434.247c0-0.015,0.001-0.028,0.001-0.043
		c0-2.672-2.168-4.838-4.842-4.838c-2.675,0-4.842,2.166-4.842,4.838c0,0.015,0,0.028,0,0.043H329.221L329.221,434.247z"/>
	<path fill-rule="evenodd" clip-rule="evenodd" fill="#DF4926" d="M344.002,429.366c-0.011,0-0.021,0-0.032,0
		c-2.674,0-4.842,2.166-4.842,4.838c0,0.015,0,0.028,0,0.043h2.396l0.409-0.542l0.586-0.791l0.58-0.797l0.575-0.805l0.327-0.466
		V429.366L344.002,429.366z"/>
	<polygon fill-rule="evenodd" clip-rule="evenodd" fill="#F04E29" points="304.801,455.869 304.801,434.247 341.524,434.247 
		341.343,434.489 340.746,435.266 340.145,436.036 339.538,436.798 338.926,437.554 338.31,438.301 337.688,439.042 
		337.062,439.775 336.43,440.501 335.794,441.219 335.153,441.93 334.509,442.633 333.858,443.327 333.204,444.015 332.546,444.694 
		331.883,445.366 331.217,446.03 330.545,446.686 329.869,447.333 329.19,447.973 328.507,448.604 327.819,449.227 327.128,449.842 
		326.433,450.447 325.734,451.046 325.031,451.635 324.325,452.216 323.616,452.788 322.902,453.351 322.187,453.905 
		321.466,454.451 320.743,454.988 319.634,455.101 318.521,455.206 317.404,455.304 316.285,455.394 315.163,455.476 
		314.038,455.551 312.911,455.618 311.78,455.677 310.647,455.729 309.512,455.772 308.373,455.809 307.232,455.837 306.09,455.857 
		304.944,455.869 304.801,455.869 	"/>
	<path fill-rule="evenodd" clip-rule="evenodd" fill="#DF4926" d="M304.801,439.085c2.669-0.006,4.83-2.169,4.83-4.838h-4.83
		V439.085L304.801,439.085z"/>
	<path fill-rule="evenodd" clip-rule="evenodd" fill="#DF4926" d="M324.38,439.086c2.674,0,4.842-2.167,4.842-4.839h-9.684
		C319.538,436.919,321.705,439.086,324.38,439.086L324.38,439.086z"/>
	<path fill-rule="evenodd" clip-rule="evenodd" fill="#DF4926" d="M339.128,434.247c0,0.842,0.215,1.633,0.593,2.321l0.424-0.532
		l0.602-0.771l0.597-0.776l0.182-0.242H339.128L339.128,434.247z"/>
	<path fill-rule="evenodd" clip-rule="evenodd" fill="#DF4926" d="M314.568,451.187c2.674,0,4.842-2.166,4.842-4.838
		s-2.168-4.838-4.842-4.838s-4.842,2.166-4.842,4.838S311.895,451.187,314.568,451.187L314.568,451.187z"/>
	<path fill-rule="evenodd" clip-rule="evenodd" fill="#DF4926" d="M335.389,441.668c-0.393-0.103-0.805-0.157-1.23-0.157
		c-2.674,0-4.842,2.166-4.842,4.838c0,0.462,0.064,0.908,0.186,1.331l0.367-0.347l0.676-0.647l0.672-0.655l0.666-0.664l0.663-0.672
		l0.658-0.68l0.654-0.688l0.65-0.694l0.645-0.703L335.389,441.668L335.389,441.668z"/>
	<path fill-rule="evenodd" clip-rule="evenodd" fill="#DF4926" d="M308.396,455.808c-0.884-0.985-2.167-1.606-3.596-1.609v1.671
		h0.144l1.146-0.012l1.143-0.021l1.141-0.028L308.396,455.808L308.396,455.808z"/>
	<polygon fill-rule="evenodd" clip-rule="evenodd" fill="#F04E29" points="344.002,430.847 344.002,409.416 355.983,409.416 
		355.685,410.098 355.259,411.049 354.826,411.995 354.387,412.936 353.94,413.87 353.487,414.8 353.027,415.724 352.561,416.641 
		352.088,417.554 351.607,418.46 351.122,419.36 350.629,420.254 350.131,421.143 349.626,422.025 349.114,422.901 348.597,423.771 
		348.073,424.636 347.544,425.492 347.009,426.344 346.467,427.188 345.92,428.026 345.367,428.857 344.809,429.683 
		344.245,430.501 344.002,430.847 	"/>
	<path fill-rule="evenodd" clip-rule="evenodd" fill="#DF4926" d="M344.002,414.254c2.669-0.006,4.831-2.17,4.831-4.838h-4.831
		V414.254L344.002,414.254z"/>
	<path fill-rule="evenodd" clip-rule="evenodd" fill="#DF4926" d="M352.446,416.861c-2.03,0.575-3.518,2.441-3.518,4.655
		c0,0.476,0.068,0.934,0.195,1.367l0.502-0.858l0.505-0.883l0.498-0.889l0.493-0.894l0.485-0.9l0.48-0.906L352.446,416.861
		L352.446,416.861z"/>
	<path fill-rule="evenodd" clip-rule="evenodd" fill="#DF4926" d="M344.958,429.463c-0.309-0.063-0.628-0.096-0.956-0.097v1.48
		l0.243-0.346l0.563-0.818L344.958,429.463L344.958,429.463z"/>
	<polygon fill-rule="evenodd" clip-rule="evenodd" fill="#F04E29" points="243.662,384.584 265.599,384.584 265.599,409.416 
		251.629,409.416 251.36,408.805 250.952,407.854 250.551,406.898 250.158,405.938 249.771,404.972 249.393,404.001 
		249.021,403.025 248.657,402.044 248.301,401.059 247.952,400.067 247.611,399.072 247.277,398.071 246.952,397.066 
		246.634,396.057 246.324,395.042 246.023,394.023 245.729,392.999 245.443,391.971 245.166,390.938 244.896,389.901 
		244.636,388.859 244.383,387.814 244.139,386.764 243.903,385.709 243.676,384.651 243.662,384.584 	"/>
	<path fill-rule="evenodd" clip-rule="evenodd" fill="#DF4926" d="M245.976,389.422c2.674,0,4.842-2.167,4.842-4.838h-7.156
		l0.014,0.067l0.228,1.059l0.235,1.054l0.245,1.05l0.252,1.045l0.101,0.402C245.132,389.366,245.548,389.422,245.976,389.422
		L245.976,389.422z"/>
	<path fill-rule="evenodd" clip-rule="evenodd" fill="#DF4926" d="M265.566,389.422c0.011,0,0.022,0,0.033,0v-4.838h-4.875
		C260.725,387.256,262.893,389.422,265.566,389.422L265.566,389.422z"/>
	<path fill-rule="evenodd" clip-rule="evenodd" fill="#DF4926" d="M255.755,401.523c2.674,0,4.842-2.166,4.842-4.838
		c0-2.672-2.167-4.838-4.842-4.838c-2.674,0-4.842,2.166-4.842,4.838C250.913,399.357,253.081,401.523,255.755,401.523
		L255.755,401.523z"/>
	<path fill-rule="evenodd" clip-rule="evenodd" fill="#DF4926" d="M265.599,404.534c-0.011,0-0.022,0-0.033,0
		c-2.674,0-4.842,2.166-4.842,4.838c0,0.015,0,0.029,0,0.044h4.874V404.534L265.599,404.534z"/>
	<polygon fill-rule="evenodd" clip-rule="evenodd" fill="#F04E29" points="251.629,409.416 265.599,409.416 265.599,433.271 
		265.476,433.108 264.89,432.323 264.309,431.531 263.734,430.733 263.165,429.928 262.602,429.117 262.044,428.3 261.492,427.476 
		260.946,426.646 260.407,425.81 259.873,424.967 259.345,424.118 258.823,423.264 258.308,422.403 257.798,421.536 
		257.295,420.664 256.799,419.786 256.309,418.901 255.825,418.012 255.349,417.116 254.878,416.215 254.415,415.308 
		253.958,414.396 253.507,413.477 253.063,412.554 252.627,411.624 252.198,410.689 251.776,409.75 251.629,409.416 	"/>
	<path fill-rule="evenodd" clip-rule="evenodd" fill="#DF4926" d="M265.566,414.254c0.011,0,0.022,0,0.033,0v-4.838h-4.875
		C260.725,412.088,262.893,414.254,265.566,414.254L265.566,414.254z"/>
	<path fill-rule="evenodd" clip-rule="evenodd" fill="#DF4926" d="M259.575,424.489c0.64-0.82,1.021-1.852,1.021-2.973
		c0-2.672-2.167-4.838-4.842-4.838c-0.208,0-0.413,0.013-0.614,0.038l0.208,0.399l0.477,0.896l0.484,0.89l0.49,0.885l0.497,0.878
		l0.503,0.872l0.509,0.867l0.516,0.86l0.521,0.854L259.575,424.489L259.575,424.489z"/>
	<path fill-rule="evenodd" clip-rule="evenodd" fill="#DF4926" d="M265.599,429.366c-0.011,0-0.022,0-0.033,0
		c-0.859,0-1.665,0.223-2.364,0.614l0.532,0.753l0.575,0.798l0.581,0.792l0.586,0.785l0.124,0.163V429.366L265.599,429.366z"/>
	<polygon fill-rule="evenodd" clip-rule="evenodd" fill="#F04E29" points="240.943,359.752 265.599,359.752 265.599,384.584 
		243.662,384.584 243.458,383.588 243.247,382.521 243.046,381.451 242.854,380.376 242.669,379.297 242.495,378.215 
		242.329,377.128 242.172,376.038 242.024,374.944 241.885,373.846 241.755,372.745 241.635,371.64 241.524,370.531 
		241.422,369.419 241.33,368.303 241.247,367.185 241.174,366.062 241.11,364.936 241.056,363.807 241.012,362.675 240.977,361.539 
		240.952,360.4 240.943,359.752 	"/>
	<path fill-rule="evenodd" clip-rule="evenodd" fill="#DF4926" d="M245.976,364.59c2.674,0,4.842-2.166,4.842-4.838h-9.684
		C241.135,362.424,243.302,364.59,245.976,364.59L245.976,364.59z"/>
	<path fill-rule="evenodd" clip-rule="evenodd" fill="#DF4926" d="M265.566,364.59c0.011,0,0.022,0,0.033,0v-4.837h-4.875
		C260.725,362.424,262.893,364.59,265.566,364.59L265.566,364.59z"/>
	<path fill-rule="evenodd" clip-rule="evenodd" fill="#DF4926" d="M255.755,376.691c2.674,0,4.842-2.166,4.842-4.838
		s-2.167-4.838-4.842-4.838c-2.674,0-4.842,2.166-4.842,4.838S253.081,376.691,255.755,376.691L255.755,376.691z"/>
	<path fill-rule="evenodd" clip-rule="evenodd" fill="#DF4926" d="M250.817,384.584c0-0.014,0.001-0.029,0.001-0.043
		c0-2.672-2.168-4.838-4.842-4.838c-1.156,0-2.217,0.406-3.05,1.082l0.12,0.667l0.201,1.07l0.21,1.067l0.205,0.996H250.817
		L250.817,384.584z"/>
	<path fill-rule="evenodd" clip-rule="evenodd" fill="#DF4926" d="M265.599,379.703c-0.011,0-0.022,0-0.033,0
		c-2.674,0-4.842,2.166-4.842,4.838c0,0.015,0,0.029,0,0.043h4.874V379.703L265.599,379.703z"/>
	<polygon fill-rule="evenodd" clip-rule="evenodd" fill="#F04E29" points="265.599,336.823 265.599,359.752 240.943,359.752 
		240.937,359.258 240.932,358.114 240.939,356.787 240.959,355.472 240.993,354.17 241.04,352.88 241.101,351.603 241.173,350.338 
		241.26,349.085 241.358,347.845 241.47,346.617 242.221,346.179 242.983,345.748 243.757,345.321 244.542,344.9 245.338,344.485 
		246.145,344.075 246.962,343.671 247.791,343.272 248.629,342.88 249.479,342.493 250.338,342.112 251.208,341.737 
		252.088,341.369 252.978,341.006 253.877,340.649 254.787,340.299 255.706,339.956 256.634,339.618 257.572,339.287 
		258.519,338.962 259.475,338.644 260.44,338.333 261.414,338.028 262.397,337.73 263.388,337.439 264.388,337.154 265.396,336.877 
		265.599,336.823 	"/>
	<path fill-rule="evenodd" clip-rule="evenodd" fill="#DF4926" d="M265.566,339.759c0.011,0,0.022,0,0.033,0v-2.936l-0.203,0.054
		l-1.008,0.277l-1,0.285l-0.991,0.291l-0.629,0.191C262.655,339.041,264.026,339.759,265.566,339.759L265.566,339.759z"/>
	<path fill-rule="evenodd" clip-rule="evenodd" fill="#DF4926" d="M255.755,351.86c2.674,0,4.842-2.167,4.842-4.838
		c0-2.671-2.167-4.838-4.842-4.838c-2.674,0-4.842,2.167-4.842,4.838C250.913,349.693,253.081,351.86,255.755,351.86L255.755,351.86
		z"/>
	<path fill-rule="evenodd" clip-rule="evenodd" fill="#DF4926" d="M250.817,359.752c0-0.015,0.001-0.029,0.001-0.044
		c0-2.672-2.168-4.838-4.842-4.838c-2.674,0-4.841,2.166-4.841,4.838c0,0.015,0,0.029,0,0.044H250.817L250.817,359.752z"/>
	<path fill-rule="evenodd" clip-rule="evenodd" fill="#DF4926" d="M265.599,354.871c-0.011,0-0.022,0-0.033,0
		c-2.674,0-4.842,2.166-4.842,4.838c0,0.015,0,0.029,0,0.044h4.874V354.871L265.599,354.871z"/>
	
		<path fill-rule="evenodd" clip-rule="evenodd" fill="#CED41E" stroke="#000000" stroke-width="0.5248" stroke-miterlimit="2.6131" d="
		M265.954,460.626c-0.167-0.023-0.336-0.059-0.343,0.256c0,2.896,0,5.717,0,8.706c-0.039,1.579-0.893,2.462-2.042,2.27
		c-1.021-0.208-1.952-0.406-2.973-0.631c-1.442-0.35-1.907-1.24-1.928-2.708c-0.011-0.008-0.021-0.017-0.033-0.024
		c-0.018,1.464-0.41,2.169-1.862,1.855c-1.1-0.264-2.103-0.513-3.202-0.795c-1.769-0.533-1.748-2.398-1.748-2.398
		c0-2.921,0-5.71,0-8.625c-0.006-0.351-0.178-0.361-0.327-0.392c-0.182-0.038-0.357-0.073-0.539-0.111c0-0.453,0-0.886,0-1.339
		c1.604,0.361,3.068,0.671,4.672,0.992c0,0.429,0,0.839,0,1.269c-0.126-0.023-0.25-0.047-0.375-0.07
		c-0.166-0.031-0.337-0.09-0.343,0.25c0,2.567,0,5.033,0,7.623c0.01,0.583,0.26,0.654,0.425,0.689
		c0.47,0.096,0.918,0.186,1.388,0.28c0.149,0.028,0.398,0.06,0.408-0.538c0-3.14,0-6.12,0-9.209c1.071,0.205,2.048,0.385,3.12,0.574
		c0,3.075,0,6.056,0,9.205c0.011,0.619,0.259,0.688,0.425,0.718c0.47,0.084,0.918,0.165,1.388,0.248
		c0.149,0.024,0.397,0.046,0.409-0.585c0-2.638,0-5.134,0-7.711c-0.004-0.322-0.128-0.331-0.294-0.356
		c-0.104-0.018-0.206-0.032-0.311-0.049c0-0.403,0-0.789,0-1.191c1.599,0.27,3.057,0.498,4.655,0.733c0,0.386,0,0.755,0,1.144
		C266.333,460.678,266.148,460.652,265.954,460.626L265.954,460.626z"/>
	
		<path fill-rule="evenodd" clip-rule="evenodd" fill="#CED41E" stroke="#000000" stroke-width="0.5248" stroke-miterlimit="2.6131" d="
		M274.319,473.762c-1.856-0.28-3.55-0.557-5.407-0.885c-1.105-0.238-1.971-1.438-2.009-3.044c0-2.878,0-5.593,0-8.381
		c0.037-1.179,0.896-1.677,2.009-1.554c1.857,0.253,3.55,0.463,5.407,0.673c1.125,0.155,2.005,0.817,2.042,1.952
		c0,2.84,0,5.628,0,8.601C276.32,472.857,275.451,473.886,274.319,473.762L274.319,473.762z M273.143,462.927
		c-0.006-0.506-0.176-0.531-0.343-0.551c-0.796-0.088-1.557-0.173-2.352-0.264c-0.167-0.02-0.337-0.032-0.343,0.479
		c0,2.224,0,4.384,0,6.674c0.008,0.694,0.177,0.745,0.343,0.77c0.808,0.112,1.544,0.211,2.353,0.314
		c0.167,0.021,0.335,0.015,0.343-0.694C273.143,467.342,273.143,465.164,273.143,462.927L273.143,462.927z"/>
	
		<path fill-rule="evenodd" clip-rule="evenodd" fill="#CED41E" stroke="#000000" stroke-width="0.5248" stroke-miterlimit="2.6131" d="
		M291.724,462.927c-0.168-0.007-0.336-0.026-0.343,0.259c0,2.321-0.001,5.087,0,9.151c-0.041,1.863-0.896,3.133-2.042,3.101
		c-1.021-0.075-1.952-0.15-2.973-0.24c-1.444-0.17-1.905-1.286-1.928-3.117c-0.011-0.007-0.021-0.017-0.032-0.025
		c-0.02,1.828-0.413,2.882-1.862,2.768c-1.1-0.119-2.102-0.235-3.202-0.372c-1.772-0.323-1.749-2.923-1.749-2.924
		c0-3.214,0-6.223,0-9.277c-0.006-0.296-0.175-0.288-0.326-0.302c-0.183-0.017-0.357-0.034-0.54-0.052c0-0.36,0-0.705,0-1.063
		c1.604,0.164,3.068,0.301,4.671,0.437c0,0.35,0,0.686,0,1.038c-0.127-0.01-0.249-0.021-0.375-0.03
		c-0.168-0.014-0.336-0.052-0.343,0.24c0,2.627,0,5.208,0,7.964c0.011,0.721,0.257,0.776,0.425,0.793
		c0.47,0.043,0.918,0.083,1.388,0.126c0.151,0.012,0.398,0.002,0.409-0.726c0-3.229,0-6.242,0-9.283
		c1.072,0.083,2.048,0.154,3.12,0.225c0,3.041,0,6.058,0,9.296c0.01,0.738,0.257,0.79,0.424,0.803
		c0.47,0.032,0.919,0.063,1.389,0.096c0.151,0.008,0.397-0.01,0.408-0.752c0-2.784,0-5.384,0-8.021
		c-0.005-0.287-0.126-0.282-0.294-0.291c-0.105-0.006-0.206-0.012-0.311-0.018c0-0.343,0-0.67,0-1.011
		c1.598,0.095,3.056,0.168,4.655,0.235c0,0.337,0,0.658,0,0.998C292.103,462.941,291.917,462.936,291.724,462.927L291.724,462.927z"
		/>
	
		<path fill-rule="evenodd" clip-rule="evenodd" fill="#CED41E" stroke="#000000" stroke-width="0.5248" stroke-miterlimit="2.6131" d="
		M303.29,469.253c-1.25,0-2.392-0.009-3.643-0.025c0,1.34,0,2.637,0,4.008c0.007,0.474,0.158,0.562,0.327,0.568
		c0.183,0.003,0.357,0.004,0.539,0.008c0,0.712,0,1.396,0,2.116c-1.615-0.024-3.089-0.064-4.705-0.127c0-0.715,0-1.395,0-2.102
		c0.172,0.005,0.335,0.011,0.506,0.017c0.168,0.004,0.335-0.028,0.343-0.55c0-3.427-0.001-6.615,0-9.821
		c-0.006-0.282-0.175-0.263-0.343-0.266c-0.171-0.006-0.335-0.008-0.506-0.014c0-0.336,0-0.656,0-0.99
		c2.569,0.072,4.912,0.105,7.481,0.107c1.127,0.025,1.99,0.537,2.025,1.604c0,1.058,0,2.082,0,3.166
		C305.278,468.331,304.417,469.218,303.29,469.253L303.29,469.253z M302.261,464.575c-0.011-0.508-0.273-0.577-0.425-0.581
		c-0.741-0.006-1.448-0.012-2.189-0.02c0,0.866,0,1.702,0,2.586c0.741,0.007,1.448,0.013,2.189,0.019
		c0.168-0.002,0.414-0.076,0.425-0.643C302.26,465.474,302.261,465.033,302.261,464.575L302.261,464.575z"/>
	
		<path fill-rule="evenodd" clip-rule="evenodd" fill="#CED41E" stroke="#000000" stroke-width="0.5248" stroke-miterlimit="2.6131" d="
		M313.286,475.69c-1.856,0.096-3.55,0.159-5.406,0.204c-1.11-0.023-1.969-1.317-2.01-3.217c0-3.097,0-5.983,0-8.895
		c0.036-1.082,0.9-1.596,2.009-1.64c1.856-0.031,3.551-0.078,5.407-0.147c1.128-0.017,2.006,0.459,2.041,1.549
		c0,2.897,0.001,5.765,0.001,8.837C315.287,474.25,314.411,475.583,313.286,475.69L313.286,475.69z M312.109,464.36
		c-0.007-0.489-0.175-0.487-0.343-0.483c-0.796,0.02-1.557,0.039-2.353,0.059c-0.168,0.004-0.336,0.011-0.343,0.499
		c0,2.307,0,4.573,0,6.994c0.007,0.781,0.175,0.813,0.343,0.81c0.796-0.023,1.557-0.047,2.353-0.071
		c0.168-0.008,0.335-0.049,0.343-0.827C312.109,468.925,312.109,466.663,312.109,464.36L312.109,464.36z"/>
	
		<path fill-rule="evenodd" clip-rule="evenodd" fill="#CED41E" stroke="#000000" stroke-width="0.5248" stroke-miterlimit="2.6131" d="
		M330.69,461.823c-0.167,0.017-0.336,0.022-0.343,0.32c-0.001,2.429,0,5.156,0,8.934c-0.04,1.733-0.902,3.056-2.041,3.25
		c-1.021,0.133-1.952,0.245-2.974,0.362c-1.448,0.124-1.905-0.889-1.928-2.708c-0.012-0.006-0.021-0.014-0.032-0.02
		c-0.02,1.818-0.419,2.947-1.862,3.126c-1.1,0.104-2.103,0.19-3.201,0.276c-1.786,0.029-1.748-2.77-1.748-2.771
		c0-3.301,0-6.377,0-9.478c-0.008-0.284-0.176-0.253-0.327-0.245c-0.183,0.008-0.356,0.017-0.539,0.024c0-0.34,0-0.664,0-1.001
		c1.605-0.075,3.067-0.156,4.672-0.261c0,0.343,0,0.671,0,1.017c-0.127,0.008-0.249,0.015-0.376,0.022
		c-0.168,0.01-0.336-0.005-0.343,0.282c0,2.64,0,5.241,0,8.025c0.011,0.739,0.257,0.755,0.425,0.745
		c0.469-0.035,0.919-0.068,1.388-0.102c0.151-0.014,0.398-0.066,0.409-0.801c-0.001-3.234,0-6.25,0-9.291
		c1.071-0.075,2.049-0.15,3.12-0.239c-0.001,3.042-0.001,6.052-0.001,9.277c0.011,0.724,0.258,0.732,0.426,0.718
		c0.47-0.044,0.918-0.088,1.388-0.133c0.15-0.017,0.397-0.073,0.408-0.789c0-2.745,0.001-5.317,0.001-7.937
		c-0.007-0.294-0.127-0.271-0.294-0.258c-0.105,0.009-0.206,0.018-0.311,0.026c0-0.354,0-0.692,0-1.045
		c1.6-0.144,3.057-0.287,4.655-0.46c0,0.361,0,0.708,0,1.072C331.069,461.785,330.885,461.805,330.69,461.823L330.69,461.823z"/>
	
		<path fill-rule="evenodd" clip-rule="evenodd" fill="#CED41E" stroke="#000000" stroke-width="0.5248" stroke-miterlimit="2.6131" d="
		M333.6,473.572c-1.148,0.133-1.987-0.946-2.026-2.64c0-2.946-0.001-5.712,0-8.532c0.035-1.125,0.884-1.809,2.026-1.972
		c2.271-0.269,4.344-0.543,6.615-0.876c0,1.176-0.001,2.31-0.001,3.503c-0.453,0.057-0.886,0.112-1.339,0.168
		c0-0.319,0-0.623,0-0.94c-0.001-0.327-0.038-0.481-0.393-0.444c-1.088,0.137-2.08,0.256-3.168,0.379
		c-0.32,0.037-0.5,0.063-0.507,0.588c0,0.54,0,1.06,0,1.605c1.256-0.135,2.403-0.267,3.659-0.418c0,0.776,0,1.523,0,2.308
		c-1.257,0.158-2.402,0.295-3.659,0.436c0,0.976,0,1.913,0,2.9c0.011,0.54,0.239,0.557,0.441,0.532
		c1.11-0.15,2.123-0.293,3.233-0.458c0.354-0.062,0.391-0.286,0.393-0.709c0-0.389,0-0.76,0-1.147
		c0.453-0.063,0.886-0.123,1.339-0.186c0,1.599,0.001,3.138,0.001,4.759C337.943,472.857,335.871,473.217,333.6,473.572
		L333.6,473.572z"/>
	
		<path fill-rule="evenodd" clip-rule="evenodd" fill="#CED41E" stroke="#000000" stroke-width="0.5248" stroke-miterlimit="2.6131" d="
		M346.62,471.108c0-0.533,0-1.042,0-1.573c0.121-0.024,0.238-0.049,0.359-0.072c0.164-0.036,0.335-0.135,0.343-0.46
		c0-1.006,0-1.966,0-2.967c-0.01-0.574-0.258-0.579-0.408-0.558c-0.801,0.126-1.567,0.245-2.369,0.369
		c0,1.228,0.001,2.406,0.001,3.646c0.006,0.336,0.128,0.415,0.294,0.388c0.153-0.03,0.303-0.058,0.457-0.087
		c0,0.542,0,1.061,0,1.604c-1.564,0.337-2.992,0.629-4.558,0.93c0-0.579,0-1.131,0-1.706c0.177-0.03,0.346-0.061,0.523-0.09
		c0.165-0.029,0.335-0.029,0.343-0.48c0-3.175,0-6.17,0-9.245c-0.007-0.331-0.177-0.28-0.343-0.257
		c-0.177,0.024-0.347,0.05-0.523,0.074c0-0.39,0-0.762,0-1.149c2.659-0.398,5.085-0.803,7.743-1.298
		c1.164-0.184,2.037,0.387,2.074,1.661c0,0.716,0,1.401,0,2.12c-0.063,1.521-1.567,1.799-1.568,1.799
		c0.001,0,1.505-0.321,1.568,1.329c0,1.082,0,2.117,0,3.203c0.008,0.347,0.197,0.396,0.327,0.355c0.137-0.03,0.271-0.059,0.408-0.09
		c0,0.493,0,0.965,0,1.458C349.688,470.408,348.225,470.752,346.62,471.108L346.62,471.108z M347.339,461.207
		c-0.011-0.548-0.274-0.59-0.425-0.569c-0.801,0.126-1.567,0.245-2.368,0.367c0,0.808-0.001,1.581-0.001,2.395
		c0.802-0.117,1.568-0.231,2.369-0.353c0.166-0.028,0.415-0.133,0.425-0.697C347.339,461.963,347.339,461.593,347.339,461.207
		L347.339,461.207z"/>
	
		<path fill-rule="evenodd" clip-rule="evenodd" fill="#CED41E" stroke="#000000" stroke-width="0.5248" stroke-miterlimit="2.6131" d="
		M355.46,465.56c-0.897,0.188-1.716,0.357-2.613,0.536c-0.107-3.105-0.204-5.837-0.311-8.717c1.094-0.228,2.092-0.443,3.186-0.689
		C355.632,459.736,355.549,462.504,355.46,465.56L355.46,465.56z M352.65,469.672c0-0.847,0-1.656,0-2.502
		c1.044-0.221,1.994-0.429,3.038-0.663c0,0.801,0,1.566,0,2.368C354.646,469.157,353.694,469.406,352.65,469.672L352.65,469.672z"/>
	<path fill-rule="evenodd" clip-rule="evenodd" fill="#FFE26D" d="M351.475,345.528c0,0.007-0.001,0.014-0.001,0.021
		c0.001,0.02,0.003,0.038,0.004,0.058C351.477,345.58,351.476,345.554,351.475,345.528L351.475,345.528z"/>
	
		<path fill-rule="evenodd" clip-rule="evenodd" fill="#FFFFFF" stroke="#FCAF17" stroke-width="1.0497" stroke-miterlimit="2.6131" d="
		M366.879,378.557c-0.226-0.047-0.446-0.086-0.669-0.128c1.903-0.662,3.48-1.751,4.147-3.77c0.007-0.021,0.014-0.042,0.021-0.064
		c0.565-1.874,0.116-3.758-1.266-5.305c-2.444-2.736-7.591-4.023-12.563-3.121c-5.596,1.125-11.56,2.077-14.813,2.403
		c-0.041-0.258-0.085-0.516-0.148-0.782c-0.005-0.021-0.01-0.041-0.015-0.061c-0.812-3.069-2.919-5.538-5.667-6.763
		c1.099-0.385,2.035-0.879,2.804-1.387c3.018-1.99,4.943-5.102,5.858-8.024c1.905,0.136,3.312-0.521,4.113-1.055
		c1.733-1.154,2.879-3.187,2.793-4.952c-0.111-3.574-2.527-5.853-4.474-7.684c-0.311-0.292-0.614-0.58-0.904-0.865
		c0.596,0.182,1.195,0.375,1.79,0.569c3.791,1.234,8.983,2.925,11.055-1.613c0.808-1.769,0.77-3.708-0.109-5.608
		c-1.471-3.18-5.279-5.979-9.94-7.303c-1.106-0.314-2.225-0.502-3.313-0.622c2.114-1.187,4.17-2.692,5.301-4.86
		c1.251-2.464,0.959-5.179-0.764-7.085c-0.023-0.026-0.047-0.052-0.072-0.077c-0.924-0.944-2.654-2.037-5.645-1.882
		c-6.262,0.326-15.523,5.985-21.674,13.113c-0.893-0.595-1.659-1.261-2.405-1.915c-1.67-1.463-3.563-3.121-6.407-3.002
		c-3.511,0.197-6.019,3.042-6.099,6.918c0,0.026,0,0.051,0,0.077c0.013,1.455,0.353,2.922,0.973,4.318
		c-2.312-1.38-5.124-2.199-8.24-2.303c-0.047-0.002-0.095-0.002-0.143-0.001c-8.391,0.176-13.492,5.91-14.194,11.484
		c-0.494,3.921,1.083,8.644,6.472,11.614c-3.576,3.595-5.78,8.314-6.295,13.344c-1.084-0.591-2.396-0.94-3.998-0.836
		c-0.02,0.001-0.04,0.003-0.06,0.004c-3.179,0.28-5.61,2.97-6.049,6.693c-0.459,3.895,1.432,8.603,6.579,10.879
		c0.728,1.631,1.907,2.978,3.384,4.053c-1.695,0.649-3.167,1.848-4.449,3.292c-3.272-8.703-10.366-11.138-16.661-10.256
		c-3.987,0.633-7.468,2.811-9.8,6.133c-1.896,2.7-3.838,7.29-3.057,14.257c-3.97,1.147-10.854,3.903-12.939,8.681
		c-0.527,1.209-0.074,2.622,1.059,3.3c1.133,0.677,2.594,0.407,3.41-0.629c1.747-2.218,5.62-4.391,9.736-5.571
		c1.327,4.026,3.734,7.934,6.83,11.01c3.736,3.725,9.322,7.603,14.499,8.293c-1.833,12.214,5.845,24.729,14.833,28.187
		c-0.061-0.023-0.12-0.049-0.179-0.077c5.496,2.597,12.264,1.579,16.459-2.475c3.753-3.626,4.634-8.938,2.356-14.206
		c-0.01-0.021-0.019-0.042-0.029-0.063c-0.503-1.083-1.134-2.192-1.816-3.287c6.048-0.61,7.95-3.476,8.8-6.48
		c2.067-1.205,5.593-3.79,6.42-7.765c0.182-0.874-0.094-1.779-0.73-2.405c-0.408-0.4-1.077-1.256-1.072-1.948
		c3.641-4.359,5.79-11.123,6.32-16.645c1.565-0.051,3.142-0.166,4.693-0.457c1.512,0.974,3.358,1.376,5.187,1.113
		c2.359,0.867,4.778,1.208,7.078,0.998c3.304,0.89,6.642,3.154,9.766,5.487c-0.039-0.029-0.076-0.06-0.113-0.09
		c2.565,2.145,6.081,2.452,8.359,0.731c0.799-0.604,3.249-2.925,1.227-7.441c0.035,0.078,0.066,0.158,0.094,0.239
		c-0.492-1.469-1.716-2.869-3.421-4.494c1.089,0.117,2.205,0.283,3.309,0.449c1.18,0.178,2.398,0.361,3.576,0.481
		c7.609,0.775,8.835-3.176,9.03-4.406C375.582,383.331,372.014,379.66,366.879,378.557L366.879,378.557z M315.387,334.643
		c-0.425,1.459-0.322,3.18,0.161,4.75c-0.528,1.442-1.05,2.912-1.53,4.409c-0.063-0.018-0.125-0.031-0.187-0.047
		c1.398-2.776,1.652-5.947,0.589-8.977c-0.093-0.266-0.201-0.524-0.312-0.781C314.531,334.246,314.957,334.464,315.387,334.643
		L315.387,334.643z M300.258,386.089c0.858,0.313,2.024,0.679,3.33,0.949c0.044,0.365,0.103,0.724,0.175,1.074
		c-0.625,0.768-1.489,1.47-2.476,2.01c-0.904-1.07-2.196-2.538-3.782-3.906C298.43,386.225,299.353,386.184,300.258,386.089
		L300.258,386.089z M300.472,414.276c-0.083,0.097-0.15,0.207-0.225,0.311C300.314,414.479,300.388,414.375,300.472,414.276
		L300.472,414.276z M296.884,412.959c0.247-0.029,0.491-0.061,0.733-0.099c0.246,0.271,0.492,0.538,0.734,0.801
		c0.297,0.322,0.58,0.63,0.854,0.935c0.05,0.135,0.101,0.274,0.15,0.405c0.095,0.252,0.185,0.495,0.272,0.736
		c-0.038,0.099-0.072,0.199-0.104,0.3c-0.09-0.017-0.18-0.035-0.269-0.054C298.723,415.057,297.94,413.924,296.884,412.959
		L296.884,412.959z M299.574,419.713c0.04,0.114,0.071,0.231,0.118,0.342C299.645,419.942,299.606,419.829,299.574,419.713
		L299.574,419.713z M327.024,381.998c-0.366,0.061-0.743,0.113-1.128,0.155c-0.04-1.603,0.168-3.76,0.317-5.239
		c0.874-1.27,1.605-2.669,2.183-4.152c0.639,1.376,1.183,2.74,1.236,3.931c-0.521,1.011-0.983,2.106-1.174,3.371
		C327.876,380.639,327.395,381.292,327.024,381.998L327.024,381.998z M327.489,362.141c0.019-0.02,0.037-0.04,0.057-0.06
		c-0.007,0.007-0.011,0.014-0.019,0.021C327.516,362.115,327.502,362.127,327.489,362.141L327.489,362.141z"/>
	<path fill-rule="evenodd" clip-rule="evenodd" d="M348.167,312.235c1,1.107,1.135,2.637,0.371,4.14
		c-2.137,4.095-9.76,5.558-11.299,7.966c1.751,0.896,6.633,0.003,10.934,1.226c5.734,1.629,9.972,5.813,8.379,9.3
		c-1.776,3.893-8.938-1.199-14.635-1.35c-0.63,0.812-0.121,1.799,0.147,2.592c1.826,3.51,6.689,5.383,6.789,9.56
		c0.072,1.337-2.068,4.679-6.301,2.64c-0.353,5.054-5.376,13.596-16.127,9.864c-0.023,0.022-0.068,0.043-0.047,0.088
		c2.052,5.717,0.847,12.996-2.708,17.715c-0.184,1.825-0.546,5.065-0.348,7.161c0.171,0.51,0.438,1.381,0.642,1.779
		c1.724-0.046,3.41-0.246,4.972-0.626c0.299-1.234,1.106-2.265,2.052-2.935c-0.022-1.504,0.553-2.688,1.266-4.001
		c0.376-5.098-5.697-10.515-2.833-13.437c2.359-2.563,8.247-0.682,9.612,4.483c0.22,0.919,0.264,1.713,0.072,2.867
		c2.158,0.319,11.919-1.31,17.961-2.526c5.883-1.066,11.855,1.592,10.798,5.097c-1.202,3.64-9.597,2.384-12.945,4.573
		c3.608,2.144,7.375,1.864,11.42,2.714c7.096,1.524,9.166,8.531-0.087,7.588c-4.276-0.434-9.207-1.771-13.17-0.685
		c0.289,1.25,6.126,5.227,6.95,7.689c2.135,4.768-2.528,6.116-5.506,3.626c-3.215-2.4-7.102-5.089-11.116-6.039
		c-2.503,0.329-4.936-0.169-7.064-1.063c-1.721,0.465-3.549,0.006-4.77-1.219c-2.468,0.645-5.186,0.675-7.837,0.708
		c-0.003,5.109-2.068,13.423-6.242,18.013c-0.788,2.147,0.769,4.163,1.646,5.025c-0.604,2.899-3.549,5.285-6.102,6.533
		c-0.617,2.132-0.619,6.44-11.487,5.649c1.796,2.485,3.369,4.822,4.375,6.988c4.557,10.536-6.744,17.303-15.283,13.269
		c-8.781-3.378-16.096-16.736-12.48-28.449c-4.886,1.223-11.813-3.324-15.941-7.438c-3.39-3.369-5.883-7.812-6.819-12.292
		c-5.059,0.94-10.94,3.63-13.664,7.087c2.081-4.77,11.354-7.433,13.481-7.743c-2.202-11.471,3.126-18.643,10.32-19.785
		c7.2-1.009,13.558,3.015,15.099,13.878c3.011-5.167,5.663-7.506,8.548-7.408c4.833,0.175,9.265,5.788,10.761,7.558
		c0.392,0.066,0.977,0.379,1.153,0.483c2.113-0.813,4.316-2.407,5.478-4.459c-0.322-1.222-0.598-2.531-0.355-3.871
		c-2.018-0.127-4.158-0.771-5.642-1.357c-6.837,0.907-14.308-1.507-15.669-6.512c-8.354-2.789-7.055-12.537-2.36-12.95
		c4.057-0.263,5.357,3.836,6.401,5.73c0.181-0.02,0.407-0.089,0.588-0.128c-2.365-9.069,1.722-17.31,8.232-21.499
		c-14.729-4.098-9.716-19.444,2.678-19.705c11.402,0.384,15.613,11.333,8.506,17.413c2.427-0.04,4.746,0.5,6.76,1.503
		c0.709-2.672,1.662-5.269,2.616-7.866c-0.877-1.994-0.877-4.5,0.426-5.239c-0.099-0.474-0.196-0.948-0.181-1.486
		c-3.288,0.164-8.105-4.178-8.147-8.984c0.048-2.343,1.398-4.229,3.62-4.354c3.109-0.13,4.623,3.392,8.91,5.457
		c0.251-0.135,0.454-0.166,0.803-0.313C331.104,315.242,344.356,308.344,348.167,312.235L348.167,312.235z M289.475,394.546
		c-1.247,1.893-2.272,3.904-3.165,5.942c0.468,2.37,0.425,5.331-0.78,7.337c3.208,1.24,8.807,2.129,12.05,1.073
		c-0.122-0.179-0.28-0.366-0.388-0.538c-1.842-0.855-3.91-1.755-5.521-2.723c-1.646-0.947-2.237-7.473-1.666-10.829
		C289.88,394.757,289.66,394.641,289.475,394.546L289.475,394.546z M285.109,408.373c-0.108,0.137-0.309,0.435-0.695,0.698
		c-0.041,0.896-0.064,2.429-0.388,3.481c2.166-0.34,4.506,0.399,5.923,1.463c3.876-1.913,6.562,2.126,7.531,4.241
		c1.467,0.392,2.853,0.62,4.626,0.767c-0.399-0.932-0.314-2.253,0.36-3.041c-0.264-0.95-0.641-1.837-0.973-2.767
		c-0.934-1.061-1.98-2.124-2.913-3.229C294.099,411.155,289.055,410.107,285.109,408.373L285.109,408.373z"/>
	<path fill-rule="evenodd" clip-rule="evenodd" fill="#FFFFFF" d="M344.014,319.326c-1.877,1.066-8.229,3.064-8.905,7.293
		c0.589-0.641,0.864-1.104,1.477-1.781c2.588,1.306,6.275,0.187,11.277,1.582c5.48,1.528,9.478,5.181,8.153,8.034
		c-1.519,3.27-8.131-1.816-13.879-1.522c-1.058,0.006-1.904,0.277-2.432,0.73c0.645-0.033,1.262-0.149,1.763-0.127
		c-0.957,1.946,0.427,3.76,1.64,5.232c1.853,1.884,4.158,3.647,4.87,6.137c0.416,1.314-1.386,4.767-5.4,2.622
		c0.068-4.946-3.317-10.764-10.571-10.772c0.877-2.263,0.978-5.641-0.555-7.474c0.727,2.266,0.716,5.339-0.209,7.497
		c-2.841,0.386-5.391,1.544-7.586,3.588c-2.391-1.919-4.421-4.62-4.575-7.722c0.423-0.129,0.741-0.262,1.139-0.527
		c-7.491,0.929-11.532-10.659-6.85-12.015c3.628-1.051,6.697,6.094,12.304,5.595c-0.735-0.187-1.121-0.295-1.942-0.611
		c0.416-0.152,1.369-0.221,2.565-0.17c-0.147-0.341-0.96-0.455-1.468-0.493c3.938-5.283,14.76-12.456,20.281-12.605
		C348.178,311.757,350.773,315.578,344.014,319.326L344.014,319.326z"/>
	<path fill-rule="evenodd" clip-rule="evenodd" fill="#FFFFFF" d="M323.238,340.821c-0.461,0.443-1.193,1.463-1.475,1.999
		c-2.076-0.414-4.506-6.77-2.906-7.941C319.622,337.101,321.238,339.393,323.238,340.821L323.238,340.821z"/>
	<path fill-rule="evenodd" clip-rule="evenodd" fill="#FFFFFF" d="M320.801,351.003c-1.344-1.611-3.019-2.67-4.721-3.596
		c1.757,0.356,3.668,2.101,4.253,2.729c-0.267-2.53,0.056-4.868,0.874-5.965C320.428,346.212,320.346,348.461,320.801,351.003
		L320.801,351.003z"/>
	<path fill-rule="evenodd" clip-rule="evenodd" fill="#FEE4CD" d="M305.989,364.946c3.096-3.633,6.822-6.088,11.676-5.943
		c4.795,0.172,9.657,5.014,8.074,10.925c-0.81,2.88-2.215,5.86-5.689,8.737c-0.046,0.021,0.136-2.809,0.114-2.832
		c-1.246,2.611-0.676,6.34-3.708,7.865c-0.47-0.082-1.393-0.328-1.949-0.479c7.558-4.137,0.868-12.778,0.59-17.172
		c1.123-0.011,2.277,0.435,3.253,1.129c-0.195-0.485-0.842-1.888-3.591-1.857c-3.514,0.598-3.79,2.834-3.745,2.858
		c1.109-1.306,2.572-1.928,3.205-2.044c0.67,5.943-4.603,13.743-10.667,15.869c-4.506,1.353-15.054,1.417-17.578-4.863
		c3.044,0.435,5.638-2.598,3.21-6.847c-0.008-0.014,3.469-0.782,6.617,0.318c-0.05-0.754-3.25-1.614-5.44-1.239
		c-0.917-2.661-1.6-8.852,1.556-13.986c0.243,0.389,0.317,1.154,0.606,1.753c0.305-2.175,3.208-8.648,7.142-8.539
		C305.334,348.785,307.1,359.863,305.989,364.946L305.989,364.946z"/>
	<path fill-rule="evenodd" clip-rule="evenodd" d="M296.5,362.352c-1.5,0.583-1.815,2.122-1.946,3.51
		C294.151,364.81,294.629,362.442,296.5,362.352L296.5,362.352z"/>
	<path fill-rule="evenodd" clip-rule="evenodd" fill="#FFFFFF" d="M338.268,368.467c0.154,0.88,0.419,1.785,0.188,2.721
		c-0.518,0.046-1.262,0.03-2.06,0.051c0.08,0.301,0.852,0.522,2.301,0.717c6.292,0.245,15.084-1.779,17.618-2.201
		c6.478-1.149,10.272,0.91,10.924,2.655c0.446,2.083-1.438,2.734-4.811,3.33c-4.493,0.641-8.076,1.801-8.371,3.195
		c0.141-0.025,0.34-0.077,0.425-0.05c3.269,1.985,8.419,2.213,12.01,3.175c6.965,1.929,6.986,6.957-0.505,5.753
		c-6.029-0.852-11.717-1.833-13.842,0.505c-0.335,0.327,0.172,0.001,0.286-0.04c2.033,3.337,5.654,4.671,7.051,8.281
		c1.443,4.195-2.772,3.482-3.869,2.495c-3.479-2.347-6.948-4.986-11.053-5.917c0.249-0.075,0.516-0.232,0.886-0.333
		c-1.832-0.302-5.545,0.448-7.924-0.887c8.446-4.079,1.7-15.044-6.049-10.997c0.396-1.985,1.591-3.895,2.89-5.27
		c-0.426-0.035-1.199,0.548-1.516,0.845c-0.282-1.804-0.619-3.564-1.401-5.203c-0.725-2.041-2.558-3.846-1.901-6.273
		c0.437-1.064,1.572-1.524,2.652-1.559C334.931,363.677,337.516,365.864,338.268,368.467L338.268,368.467z"/>
	<path fill-rule="evenodd" clip-rule="evenodd" d="M298.212,363.682c-2.165,0.175-2.643,2.128-3.138,3.407
		C294.729,364.625,296.868,362.325,298.212,363.682L298.212,363.682z"/>
	<path fill-rule="evenodd" clip-rule="evenodd" d="M296.017,367.992c0.794-0.376,1.729-0.734,2.248-1.549
		C298.061,367.1,296.815,368.2,296.017,367.992L296.017,367.992z"/>
	<path fill-rule="evenodd" clip-rule="evenodd" d="M291.925,366.774c-0.497-0.048-1.125-0.43-1.489,1.612
		C290.102,367.389,291.091,365.784,291.925,366.774L291.925,366.774z"/>
	<path fill-rule="evenodd" clip-rule="evenodd" d="M293.079,368.623c-0.464-0.238-1.688-0.769-2.396,0.512
		C290.785,367.208,293.025,368.133,293.079,368.623L293.079,368.623z"/>
	<path fill-rule="evenodd" clip-rule="evenodd" fill="#F79C85" d="M313.382,382.85c-1.138-0.258-2.18-0.716-3.461-0.664
		c-0.631-1.44,2.271-3.59,3.637-3.707c0.02,0.854,0.014,1.811,0.536,2.35c-0.296-2.881,0.342-5.697,2.451-7.646
		C317.755,375.433,318.623,381.308,313.382,382.85L313.382,382.85z"/>
	<path fill-rule="evenodd" clip-rule="evenodd" fill="#FFFFFF" d="M322.767,382.187c-0.425-0.798-0.89-1.777-1.29-2.664
		C322.323,380.259,322.594,381.217,322.767,382.187L322.767,382.187z"/>
	<path fill-rule="evenodd" clip-rule="evenodd" d="M344.845,380.624c-0.167,0.957-2.45,2.066-3.907,2.217
		C342.282,382.208,343.5,381.279,344.845,380.624L344.845,380.624z"/>
	<path fill-rule="evenodd" clip-rule="evenodd" fill="#FFFFFF" d="M339.92,383.596c3.223,6.626-5.031,9.552-7.398,7.342
		c1.676-0.466,3.771-0.718,4.68-2.531c1.434-3.637-1.771-5.349-2.917-5.36c-1.579,0.245-3.075,0.694-4.592,1.098
		c-0.045,0.021-0.032,0.074-0.008,0.029C330.061,381.471,336.518,378.312,339.92,383.596L339.92,383.596z"/>
	<path fill-rule="evenodd" clip-rule="evenodd" fill="#FDB827" d="M278.438,387.762c0.807,2.062,1.423,5.478,1.98,8.049
		c0.652,3.013,2.871,8.023,3.188,12.425c0.195,5.103-1.412,7.142-3.973,9.04c2.068-3.08-0.528-6.389-1.882-9.167
		c-3.277-5.326-4.716-12.266-7.806-17.659c-2.274-4.248-11.512-7.011-14.271,2.661c-0.08-4.82,2.669-12.444,9.944-13.518
		C268.439,379.178,274.97,378.907,278.438,387.762L278.438,387.762z"/>
	<path fill-rule="evenodd" clip-rule="evenodd" fill="#FEE4CD" d="M308.272,382.495c-0.685,0.338-1.442,0.922-1.822,1.606
		c-1.478-0.156-3.208-0.38-4.54-0.891c1.158-0.175,2.723-0.809,3.594-1.269C306.467,382.038,307.406,382.155,308.272,382.495
		L308.272,382.495z"/>
	<path fill-rule="evenodd" clip-rule="evenodd" d="M346.729,384.472c-0.28,0.845-2.738,1.437-4.797,1.181
		C341.914,385.518,345.145,384.889,346.729,384.472L346.729,384.472z"/>
	<path fill-rule="evenodd" clip-rule="evenodd" fill="#FFFFFF" d="M323.301,384.851c-2.026-0.075-4.29-0.41-6.353-1.072
		C318.404,384.001,321.934,384.475,323.301,384.851L323.301,384.851z"/>
	<path fill-rule="evenodd" clip-rule="evenodd" d="M345.949,389.498c-0.735,1.078-4.389-0.692-4.282-0.98
		C343.069,388.918,344.427,389.363,345.949,389.498L345.949,389.498z"/>
	<path fill-rule="evenodd" clip-rule="evenodd" fill="#FFFFFF" d="M323.133,391.752c-2.4,0.703-9.853-1.794-12.586-3.444
		C314.734,389.943,318.414,391.269,323.133,391.752L323.133,391.752z"/>
	<path fill-rule="evenodd" clip-rule="evenodd" fill="#E8AE10" d="M261.984,387.452c3.897-0.518,6.335,1.42,7.456,3.393
		c2.866,5.539,4.378,12.054,7.677,17.404c-2.199,1.46-8.53,3.62-14.397,2.308c-2.75-2.752-4.683-5.868-5.781-9.287
		C254.443,393.051,257.851,388.002,261.984,387.452L261.984,387.452z"/>
	<path fill-rule="evenodd" clip-rule="evenodd" fill="#FFFFFF" d="M306.827,390.099c-0.149-0.257-0.29-0.611-0.362-0.811
		c0.015-0.103,0.092-0.202,0.155-0.334C306.672,389.272,306.842,389.802,306.827,390.099L306.827,390.099z"/>
	<path fill-rule="evenodd" clip-rule="evenodd" fill="#EF3E42" d="M302.053,395.976c-0.043-0.675-0.909-1.916-1.363-2.501
		c0.417,0.087,1.339,0.78,1.719,1.098c-0.124-0.363-0.428-0.731-0.732-1.054c1.61-0.536,3.028-1.778,4.387-2.882
		c9.346-0.308,15.463,5.737,15.188,10.691c-1.104,5.884-6.364,10.321-7.12,11.114c0.827-0.25,2.039-1.342,2.664-1.974
		c-0.331,1.869,0.902,3.623,1.739,4.377c-1.467,4.274-6.354,6.952-9.861,6.828c-2.832,0.019-7.353-1.803-5.955-5.123
		c0.124,0.254,0.353,0.583,0.511,0.936c0.236-0.898-0.529-2.607-0.903-3.617c0.396,0.307,1.104,0.816,1.588,0.967
		c-0.818-1.345-5.421-5.269-7.34-8.387c-0.167,0.332,0.115,0.788,0.217,1.016c-1.209-0.626-2.724-1.292-4.097-1.939
		c3.32-1.868,3.385-13.869,2.72-16.507C297.273,390.345,300.732,394.343,302.053,395.976L302.053,395.976z"/>
	<path fill-rule="evenodd" clip-rule="evenodd" fill="#FFFFFF" d="M291.1,392.572c-0.401,0.639-0.825,1.084-1.338,1.627
		C289.967,393.745,290.527,392.875,291.1,392.572L291.1,392.572z"/>
	<path fill-rule="evenodd" clip-rule="evenodd" d="M314.115,395.146c3.019,2.429-4.148,10.76-7.025,8.146
		C304.625,400.998,311.096,392.717,314.115,395.146L314.115,395.146z"/>
	<path fill-rule="evenodd" clip-rule="evenodd" fill="#FDB827" d="M284.393,408.308c-0.37-4.425-3.639-13.027-3.454-14.203
		C284.987,395.415,288.024,404.506,284.393,408.308L284.393,408.308z"/>
	<path fill-rule="evenodd" clip-rule="evenodd" fill="#FFFFFF" d="M313.712,395.504c2.68,2.298-4.247,9.031-6.181,7.624
		C305.377,401.067,311.685,393.899,313.712,395.504L313.712,395.504z"/>
	<path fill-rule="evenodd" clip-rule="evenodd" fill="#BF2F38" d="M294.906,398.434c-0.289,2.145-1.156,6.854-2.894,6.668
		c-1.557-1.034-1.642-7.454-1.344-9.892C291.399,395.647,293.666,397.095,294.906,398.434L294.906,398.434z"/>
	<path fill-rule="evenodd" clip-rule="evenodd" d="M319.611,400.002c2.149,1.354-2.848,9.42-4.759,8.069
		C313.119,406.862,317.702,398.8,319.611,400.002L319.611,400.002z"/>
	<path fill-rule="evenodd" clip-rule="evenodd" fill="#FFFFFF" d="M315.177,407.842c-1.553-0.879,2.998-8.151,4.228-7.437
		C320.831,401.383,316.582,408.636,315.177,407.842L315.177,407.842z"/>
	<path fill-rule="evenodd" clip-rule="evenodd" fill="#E8AE10" d="M278.145,417.864c-4.489,2.41-14.495-6.068-14.9-6.799
		c6.443,1.583,12.005-1.194,14-2.545C278.541,410.982,281.893,415.853,278.145,417.864L278.145,417.864z"/>
	<path fill-rule="evenodd" clip-rule="evenodd" fill="#FDB827" d="M289.33,414.424c-4.255,4.496,3.492,17.293,8.984,12.004
		c0.76,0.135,1.495,0.314,2.278,0.427c2.691,3.873,10.274,13.419,0.697,19.151c-10.713,6.413-27.547-10.437-22.212-27.399
		c2.1-1.127,4.079-3.229,4.739-5.268C285.718,412.813,287.812,413.392,289.33,414.424L289.33,414.424z"/>
	<path fill-rule="evenodd" clip-rule="evenodd" fill="#FDB827" d="M288.749,417.406c0.349-3.324,4.796-5.188,7.952,0.6
		c-1.047-0.285-2.053-0.563-3.033-0.947c-0.093-0.01-0.125-0.105-0.117-0.231c-1.561,0.43-1.304,5.524,2.365,8.699
		c0.467,0.414,1.106,0.549,1.73,0.725C293.409,429.772,288.659,422.148,288.749,417.406L288.749,417.406z"/>
	<path fill-rule="evenodd" clip-rule="evenodd" fill="#FFFFFF" d="M303.223,422.221c-0.048-0.652,0.042-1.39,0.015-1.997
		C303.603,420.773,303.376,421.619,303.223,422.221L303.223,422.221z"/>
	<path fill-rule="evenodd" clip-rule="evenodd" d="M266.201,419.613c-1.697,0.429-6.364,1.773-6.511,1.444
		C259.972,420.247,264.466,419.786,266.201,419.613L266.201,419.613z"/>
	<path fill-rule="evenodd" clip-rule="evenodd" d="M258.854,431.726c-0.107-0.531,6.181-4.674,9.238-6.267
		C265.397,427.713,259.124,432.093,258.854,431.726L258.854,431.726z"/>
	<path fill-rule="evenodd" clip-rule="evenodd" d="M297.933,427.92c-2.446,1.453-7.281,1.788-9.929,0.849
		C291.296,429.046,294.809,428.725,297.933,427.92L297.933,427.92z"/>
	<path fill-rule="evenodd" clip-rule="evenodd" d="M269.788,434.475c0.033-1.479,1.918-4.441,3.011-6.451
		C272.106,430.157,270.41,434.718,269.788,434.475L269.788,434.475z"/>
</g>
</svg>
